<svg width="16" height="16" viewBox="0 0 16 16" fill="none" xmlns="http://www.w3.org/2000/svg">
<g clip-path="url(#clip0_613:6)">
<path fill-rule="evenodd" clip-rule="evenodd" d="M8 3.5C6.61929 3.5 5.5 4.61929 5.5 6C5.5 7.38071 6.61929 8.5 8 8.5C9.38071 8.5 10.5 7.38071 10.5 6C10.5 4.61929 9.38071 3.5 8 3.5ZM6.5 6C6.5 5.17157 7.17157 4.5 8 4.5C8.82843 4.5 9.5 5.17157 9.5 6C9.5 6.82843 8.82843 7.5 8 7.5C7.17157 7.5 6.5 6.82843 6.5 6Z" fill="black"/>
<path fill-rule="evenodd" clip-rule="evenodd" d="M16 1.5901L8 -0.00990295L0 1.5901V9.5C0 11.4812 1.2957 13.1132 2.87265 14.2216C4.45348 15.3326 6.42695 16 8 16C9.57305 16 11.5465 15.3326 13.1274 14.2216C14.7043 13.1132 16 11.4812 16 9.5V1.5901ZM1 9.5V2.4099L8 1.0099L15 2.4099V9.5C15 10.685 14.3906 11.7781 13.4358 12.6842C13.2696 11.6329 12.7961 10.7009 12.1942 9.98953C11.4544 9.11527 10.4524 8.5 9.5 8.5C9.22386 8.5 9 8.72386 9 9C9 9.27614 9.22386 9.5 9.5 9.5C10.0476 9.5 10.7956 9.88473 11.4308 10.6355C12.0411 11.3568 12.4839 12.3472 12.4996 13.4402C11.0666 14.4314 9.31699 15 8 15C6.68301 15 4.9334 14.4314 3.50043 13.4402C3.51607 12.3472 3.95887 11.3568 4.56919 10.6355C5.20444 9.88473 5.9524 9.5 6.5 9.5C6.77614 9.5 7 9.27614 7 9C7 8.72386 6.77614 8.5 6.5 8.5C5.5476 8.5 4.54556 9.11527 3.80581 9.98953C3.20391 10.7009 2.73045 11.6329 2.56425 12.6842C1.60941 11.7781 1 10.685 1 9.5Z" fill="black"/>
</g>
<defs>
<clipPath id="clip0_613:6">
<rect width="16" height="16" fill="white"/>
</clipPath>
</defs>
</svg>
