<?xml version="1.0" encoding="UTF-8"?>
<svg width="16px" height="16px" viewBox="0 0 16 16" version="1.1" xmlns="http://www.w3.org/2000/svg" xmlns:xlink="http://www.w3.org/1999/xlink">
    <!-- Generator: Sketch 62 (91390) - https://sketch.com -->
    <title>anchor</title>
    <desc>Created with Sketch.</desc>
    <g id="anchor" stroke="none" stroke-width="1" fill="none" fill-rule="evenodd">
        <path d="M8,0.5 C9.1045695,0.5 10,1.3954305 10,2.5 C10,3.43155158 9.36311708,4.21435119 8.50102216,4.43672788 L8.49998579,6.5 L11,6.5 C11.2761424,6.5 11.5,6.72385763 11.5,7 C11.5,7.24545989 11.3231248,7.44960837 11.0898756,7.49194433 L11,7.5 L8.49998579,7.5 L8.50006803,14.9800613 C10.9307614,14.7848515 12.9029193,13.1730224 13.4497241,10.8860324 C13.5068032,10.6473013 13.7263022,10.4898796 13.9630022,10.5029438 L14.0522873,10.5160086 C14.3208598,10.5802226 14.4865251,10.8499993 14.4223111,11.1185718 C13.7289114,14.0186895 11.1118409,16 8.00038639,16 C4.88694251,16 2.26987907,14.0202281 1.57775491,11.1197718 C1.51365977,10.8511709 1.67944442,10.5814675 1.94804528,10.5173724 C2.21664615,10.4532773 2.48634955,10.6190619 2.55044468,10.8876628 C3.09615453,13.1745467 5.06800924,14.78505 7.50037048,14.9800811 L7.49998579,7.5 L5,7.5 C4.72385763,7.5 4.5,7.27614237 4.5,7 C4.5,6.75454011 4.67687516,6.55039163 4.91012437,6.50805567 L5,6.5 L7.49998579,6.5 L7.49998077,4.43698631 C6.68385054,4.2269202 6.06933235,3.51465903 6.00548574,2.64926234 L6,2.5 C6,1.3954305 6.8954305,0.5 8,0.5 Z M8,1.5 C7.44771525,1.5 7,1.94771525 7,2.5 C7,3.05228475 7.44771525,3.5 8,3.5 C8.55228475,3.5 9,3.05228475 9,2.5 C9,1.94771525 8.55228475,1.5 8,1.5 Z" id="Shape" fill="#000000" fill-rule="nonzero"></path>
    </g>
</svg>