<svg width="16" height="16" viewBox="0 0 16 16" fill="none" xmlns="http://www.w3.org/2000/svg">
<path fill-rule="evenodd" clip-rule="evenodd" d="M13.7007 2.38734C15.1226 3.83143 16 5.81325 16 8C16 12.4183 12.4183 16 8 16C3.58172 16 0 12.4183 0 8C0 3.58172 3.58172 0 8 0C10.1867 0 12.1686 0.87737 13.6127 2.29929C13.6424 2.32824 13.6718 2.35759 13.7007 2.38734ZM15 8C15 11.866 11.866 15 8 15C4.13401 15 1 11.866 1 8C1 4.13401 4.13401 1 8 1C8.49068 1 8.96956 1.05049 9.43174 1.14655C7.44952 1.61709 5.97501 3.39885 5.97501 5.52499C5.97501 8.01027 7.98972 10.025 10.475 10.025C12.6012 10.025 14.3829 8.55048 14.8535 6.56826C14.9495 7.03044 15 7.50932 15 8ZM12.9133 3.01407C12.9377 3.0381 12.9619 3.06231 12.9859 3.0867C13.5981 3.71697 13.975 4.57697 13.975 5.52499C13.975 7.45799 12.408 9.02499 10.475 9.02499C8.54201 9.02499 6.97501 7.45799 6.97501 5.52499C6.97501 3.592 8.54201 2.02499 10.475 2.02499C11.423 2.02499 12.283 2.40191 12.9133 3.01407Z" fill="black"/>
</svg>
