<svg width="16" height="16" viewBox="0 0 16 16" fill="none" xmlns="http://www.w3.org/2000/svg">
<path d="M3.5 1L2.78571 2.92308H1L2.42857 4.07692L1.71429 6L3.5 4.84615L5.25 5.96154L4.57143 4.07692L6 2.92308H4.21429L3.5 1Z" fill="black"/>
<path d="M15.9952 12.8494C15.8922 10.6993 14.1614 9 12 9C11.7239 9 11.5 9.22386 11.5 9.5C11.5 9.77614 11.7239 10 12 10C13.6721 10 15 11.355 15 13.0523V14.74L14.9932 14.7995C14.9663 14.9143 14.8638 15 14.7428 15H5.25723L5.19853 14.9931C5.08528 14.9661 5 14.8629 5 14.74V13.0523L5.00504 12.8718C5.09529 11.2599 6.38766 10 8 10C8.27614 10 8.5 9.77614 8.5 9.5C8.5 9.22386 8.27614 9 8 9C5.77109 9 4 10.8071 4 13.0523V14.74L4.00649 14.8686C4.07086 15.5031 4.60616 16 5.25723 16H14.7428L14.8713 15.9935C15.5054 15.9288 16 15.3912 16 14.74V13.0523L15.9952 12.8494Z" fill="black"/>
<path fill-rule="evenodd" clip-rule="evenodd" d="M13.5 5C13.5 2.8065 11.9516 1 10 1C8.04841 1 6.5 2.8065 6.5 5C6.5 7.1935 8.04841 9 10 9C11.9516 9 13.5 7.1935 13.5 5ZM7.5 5C7.5 3.32751 8.63785 2 10 2C11.3621 2 12.5 3.32751 12.5 5C12.5 6.67249 11.3621 8 10 8C8.63785 8 7.5 6.67249 7.5 5Z" fill="black"/>
</svg>
