<svg width="16" height="16" viewBox="0 0 16 16" fill="none" xmlns="http://www.w3.org/2000/svg">
<path d="M14.4962 11.7157C14.3456 6.04814 9.70392 1.5 4 1.5H3.5V2.5H4L4.27048 2.50378C9.39211 2.64696 13.5 6.84376 13.5 12V12.5H14.5V12L14.4962 11.7157Z" fill="black"/>
<path d="M3.5 5.5C7.28545 5.5 10.3691 8.50478 10.4959 12.2593L10.5 12.5V13H9.5V12.5C9.5 9.2616 6.93443 6.62243 3.72494 6.50414L3.5 6.5H3V5.5H3.5Z" fill="black"/>
<path fill-rule="evenodd" clip-rule="evenodd" d="M4 9C2.34315 9 1 10.3431 1 12C1 13.6569 2.34315 15 4 15C5.65685 15 7 13.6569 7 12C7 10.3431 5.65685 9 4 9ZM4 10C5.10457 10 6 10.8954 6 12C6 13.1046 5.10457 14 4 14C2.89543 14 2 13.1046 2 12C2 10.8954 2.89543 10 4 10Z" fill="black"/>
</svg>
