<svg width="16" height="16" viewBox="0 0 16 16" fill="none" xmlns="http://www.w3.org/2000/svg">
<path d="M8.00001 0C8.5523 0 9.00001 0.447715 9.00001 1L8.99519 1.09876C11.2171 1.5403 12.8925 3.44067 12.995 5.77298L13.0004 6.04796L13.0189 6.55133L13.0429 6.91583C13.0477 6.97895 13.053 7.0432 13.0587 7.10849C13.1322 7.94645 13.2644 8.78355 13.4687 9.55973C13.8556 11.03 14.4524 12.0883 15.2573 12.5713C15.6649 12.8159 15.5278 13.4181 15.0912 13.4924L15 13.5L10.9584 13.5007C10.7201 14.9192 9.48627 16 8.00001 16C6.51376 16 5.27993 14.9192 5.04161 13.5007L1.00001 13.5C0.492899 13.5 0.307918 12.8322 0.742763 12.5713C1.54763 12.0883 2.14443 11.03 2.53134 9.55973C2.7356 8.78355 2.86778 7.94645 2.94128 7.10849C2.95847 6.91261 2.97155 6.72616 2.98108 6.55133L2.99621 6.19768L3.0046 5.78201C3.1032 3.44571 4.77982 1.54106 7.0049 1.0976L7.00001 1C7.00001 0.447715 7.44773 0 8.00001 0ZM9.93501 13.5H6.06401L6.08469 13.5776C6.30316 14.303 6.92248 14.8548 7.68521 14.9754L7.85075 14.9945L8.00001 15C8.84727 15 9.57147 14.4732 9.86291 13.7292L9.91533 13.5776L9.93501 13.5ZM8.00001 2C5.84354 2 4.10807 3.67013 4.00487 5.7991L3.99208 6.33563C3.9823 6.5957 3.96474 6.8848 3.93746 7.19587C3.85936 8.08619 3.71865 8.97735 3.49842 9.81423C3.26468 10.7024 2.95758 11.473 2.56353 12.0987L2.41165 12.3265L2.28201 12.499H13.717L13.5884 12.3265C13.2198 11.8047 12.9208 11.1664 12.682 10.4307L12.5833 10.1095L12.5016 9.81423C12.2814 8.97735 12.1407 8.08619 12.0626 7.19587C12.0444 6.98849 12.0305 6.79088 12.0204 6.60512L12.0079 6.33563L11.9952 5.7991C11.892 3.67013 10.1565 2 8.00001 2Z" fill="black"/>
</svg>
