<svg width="16" height="16" viewBox="0 0 16 16" fill="none" xmlns="http://www.w3.org/2000/svg">
<path fill-rule="evenodd" clip-rule="evenodd" d="M3 3C3 2.44772 3.44772 2 4 2H8C9.13107 2 10.1497 2.25231 10.8976 2.88806C11.6733 3.54733 12 4.48267 12 5.5C12 6.31801 11.7959 6.98447 11.4388 7.4995C11.4795 7.52463 11.5198 7.55059 11.5595 7.5774C12.493 8.20754 13 9.2097 13 10.5C13 11.7998 12.4824 12.7768 11.5145 13.3575C10.6471 13.8779 9.54196 14 8.5 14H4C3.44772 14 3 13.5523 3 13V3ZM8.5 6.8125C8.92823 6.8125 9.31844 6.73945 9.57634 6.5702C9.75908 6.45028 10 6.20797 10 5.5C10 4.91733 9.82674 4.60267 9.60235 4.41194C9.35029 4.19769 8.86893 4 8 4H5V6.8125H8.5ZM5 8.8125H8.5C9.41583 8.8125 10.0557 8.97535 10.4405 9.2351C10.757 9.44871 11 9.7903 11 10.5C11 11.2002 10.7676 11.4732 10.4855 11.6425C10.1029 11.8721 9.45804 12 8.5 12H5V8.8125Z" fill="black"/>
</svg>
