<?xml version="1.0" encoding="UTF-8"?>
<svg width="16px" height="16px" viewBox="0 0 16 16" version="1.1" xmlns="http://www.w3.org/2000/svg" xmlns:xlink="http://www.w3.org/1999/xlink">
    <!-- Generator: Sketch 62 (91390) - https://sketch.com -->
    <title>bottleneck</title>
    <desc>Created with Sketch.</desc>
    <g id="bottleneck" stroke="none" stroke-width="1" fill="none" fill-rule="evenodd">
        <path d="M15,2.5 L15,3.5 L11.5,3.5 C9.75641931,3.5 8.29361176,4.33219982 7.07997902,6.03915714 L6.76759188,6.5 L1.999,6.499 L1.999,9.499 L6.76759188,9.5 L6.91602515,9.7226499 C8.10707092,11.5092186 9.54585522,12.4190953 11.2639764,12.4948377 L11.5,12.5 L15,12.5 L15,13.5 L11.5,13.5 C9.4970076,13.5 7.79854027,12.5770632 6.43271333,10.7690564 L6.236,10.499 L1,10.5 L1,5.5 L6.237,5.499 L6.25645073,5.4717868 C7.59329928,3.5868889 9.26401061,2.58541472 11.2404694,2.50523093 L11.5,2.5 L15,2.5 Z" id="Path" fill="#000000" fill-rule="nonzero" transform="translate(8.000000, 8.000000) rotate(90.000000) translate(-8.000000, -8.000000) "></path>
    </g>
</svg>