<svg width="16" height="16" viewBox="0 0 16 16" fill="none" xmlns="http://www.w3.org/2000/svg">
<path fill-rule="evenodd" clip-rule="evenodd" d="M15.7924 3.59438C15.9227 3.68835 16 3.83928 16 4V12.5714C16 12.7882 15.8603 12.9803 15.654 13.0471L8.15403 15.4757C8.00185 15.525 7.83527 15.4985 7.7059 15.4044C7.57654 15.3103 7.5 15.16 7.5 15V6.5C7.5 6.28478 7.63771 6.09372 7.84189 6.02566L15.3419 3.52566C15.4944 3.47483 15.662 3.5004 15.7924 3.59438ZM8.5 6.86038V14.3125L15 12.2078V4.69371L8.5 6.86038Z" fill="black"/>
<path fill-rule="evenodd" clip-rule="evenodd" d="M0.207645 3.59438C0.338029 3.5004 0.50564 3.47483 0.658114 3.52566L8.15811 6.02566C8.36228 6.09371 8.5 6.28478 8.5 6.5V15C8.5 15.1605 8.4229 15.3113 8.29275 15.4053C8.16259 15.4993 7.99521 15.5251 7.8428 15.4746L0.342805 12.9908C0.138164 12.923 0 12.7317 0 12.5161V4C0 3.83928 0.0772606 3.68835 0.207645 3.59438ZM1 4.69371V12.155L7.5 14.3077V6.86038L1 4.69371Z" fill="black"/>
<path fill-rule="evenodd" clip-rule="evenodd" d="M7.84189 1.02566C7.94452 0.991447 8.05548 0.991447 8.15811 1.02566L15.6581 3.52566C15.8623 3.59372 16 3.78478 16 4C16 4.21522 15.8623 4.40628 15.6581 4.47434L8.15811 6.97434C8.05548 7.00855 7.94452 7.00855 7.84189 6.97434L0.341886 4.47434C0.137715 4.40628 0 4.21521 0 4C0 3.78478 0.137715 3.59372 0.341886 3.52566L7.84189 1.02566ZM2.08114 4L8 5.97295L13.9189 4L8 2.02705L2.08114 4Z" fill="black"/>
</svg>
