<svg width="16" height="16" viewBox="0 0 16 16" fill="none" xmlns="http://www.w3.org/2000/svg">
<g clip-path="url(#clip0_2:349)">
<path d="M14 0V15H16V16H0V15H2V0H14ZM13 0.999H3V14.999H5V13H4V12H12V13H11V14.999H13V0.999ZM7.5 13H6V14.999H7.5V13ZM10 13H8.5V14.999H10V13ZM9 9V10H7V9H9ZM6 9V10H4V9H6ZM12 9V10H10V9H12ZM9 6V7H7V6H9ZM6 6V7H4V6H6ZM12 6V7H10V6H12ZM9 3V4H7V3H9ZM6 3V4H4V3H6ZM12 3V4H10V3H12Z" fill="black"/>
</g>
<defs>
<clipPath id="clip0_2:349">
<rect width="16" height="16" fill="white"/>
</clipPath>
</defs>
</svg>
