<svg width="16" height="16" viewBox="0 0 16 16" fill="none" xmlns="http://www.w3.org/2000/svg">
<path fill-rule="evenodd" clip-rule="evenodd" d="M12 9C12 11.2091 10.2091 13 8 13C5.79086 13 4 11.2091 4 9C4 6.79086 5.79086 5 8 5C10.2091 5 12 6.79086 12 9ZM11 9C11 10.6569 9.65685 12 8 12C6.34315 12 5 10.6569 5 9C5 7.34315 6.34315 6 8 6C9.65685 6 11 7.34315 11 9Z" fill="black"/>
<path fill-rule="evenodd" clip-rule="evenodd" d="M0 6C0 4.89543 0.895431 4 2 4H3.38197C3.76074 4 4.107 3.786 4.27639 3.44721L4.44721 3.10557C4.786 2.428 5.47852 2 6.23607 2H9.76393C10.5215 2 11.214 2.428 11.5528 3.10557L11.7236 3.44721C11.893 3.786 12.2393 4 12.618 4H14C15.1046 4 16 4.89543 16 6V13C16 14.1046 15.1046 15 14 15H2C0.895431 15 0 14.1046 0 13V6ZM15 6V13C15 13.5523 14.5523 14 14 14H2C1.44772 14 1 13.5523 1 13V6C1 5.44772 1.44772 5 2 5H3.38197C4.13951 5 4.83204 4.572 5.17082 3.89443L5.34164 3.55279C5.51103 3.214 5.8573 3 6.23607 3H9.76393C10.1427 3 10.489 3.214 10.6584 3.55279L10.8292 3.89443C11.168 4.572 11.8605 5 12.618 5H14C14.5523 5 15 5.44772 15 6Z" fill="black"/>
</svg>
