<svg width="16" height="16" viewBox="0 0 16 16" fill="none" xmlns="http://www.w3.org/2000/svg">
<path d="M10.424 4.26501C10.5704 4.03084 10.4992 3.72236 10.265 3.57601C10.0308 3.42965 9.72235 3.50084 9.576 3.73501L7.076 7.73501C6.94152 7.95017 6.98952 8.23194 7.18765 8.39044L9.68765 10.3904C9.90328 10.5629 10.2179 10.528 10.3904 10.3124C10.5629 10.0967 10.528 9.78208 10.3123 9.60957L8.15988 7.8876L10.424 4.26501Z" fill="black"/>
<path fill-rule="evenodd" clip-rule="evenodd" d="M15 8C15 11.866 11.866 15 8 15C4.13401 15 1 11.866 1 8C1 4.13401 4.13401 1 8 1C11.866 1 15 4.13401 15 8ZM14 8C14 11.3137 11.3137 14 8 14C4.68629 14 2 11.3137 2 8C2 4.68629 4.68629 2 8 2C11.3137 2 14 4.68629 14 8Z" fill="black"/>
</svg>
