<svg width="16" height="16" viewBox="0 0 16 16" fill="none" xmlns="http://www.w3.org/2000/svg">
<path fill-rule="evenodd" clip-rule="evenodd" d="M5 8C5 6.34315 6.34315 5 8 5C9.65685 5 11 6.34315 11 8C11 9.65685 9.65685 11 8 11C6.34315 11 5 9.65685 5 8ZM10 8C10 6.89543 9.10457 6 8 6C6.89543 6 6 6.89543 6 8C6 9.10457 6.89543 10 8 10C9.10457 10 10 9.10457 10 8Z" fill="black"/>
<path fill-rule="evenodd" clip-rule="evenodd" d="M7.13189 0.00759414L7.22706 0H8.71294C9.00362 0 9.25399 0.209771 9.29781 0.494872L9.542 1.954L9.87127 2.04643C10.2123 2.15324 10.5427 2.28873 10.8596 2.45183L11.159 2.618L12.398 1.73008C12.4658 1.68941 12.5385 1.65974 12.6215 1.64744L12.7082 1.64118C12.8537 1.64118 13.0044 1.69143 13.1288 1.81586L14.1806 2.86762C14.3817 3.06876 14.4074 3.3771 14.245 3.63113L13.382 4.842L13.5439 5.13346C13.7047 5.44285 13.8389 5.76653 13.9459 6.1024L14.037 6.421L15.4984 6.66934C15.7578 6.70925 15.9524 6.91151 15.9924 7.16012L16 7.25529L15.9985 8.77952C15.9776 9.05144 15.7767 9.28377 15.501 9.32614L14.034 9.57L13.9419 9.8925C13.8353 10.2268 13.7013 10.5499 13.5412 10.8581L13.379 11.149L14.2437 12.3686C14.3868 12.5729 14.3845 12.8457 14.2452 13.0473L14.1771 13.1288L13.1253 14.1806C13.0022 14.3038 12.8533 14.3553 12.7047 14.3553C12.5739 14.3553 12.4515 14.3125 12.3618 14.245L11.15 13.382L10.8595 13.5439C10.5501 13.7047 10.2264 13.8389 9.89054 13.9459L9.571 14.037L9.3236 15.4984C9.28369 15.7578 9.08143 15.9524 8.83282 15.9924L8.73765 16H7.25176C6.96109 16 6.71071 15.7902 6.6668 15.5046L6.421 14.037L6.11363 13.9493C5.79111 13.8467 5.47541 13.7172 5.1701 13.5627L4.879 13.406L3.62313 14.2982C3.55535 14.3388 3.48268 14.3685 3.39964 14.3808L3.31294 14.3871C3.16752 14.3871 3.01676 14.3368 2.89233 14.2124L1.84056 13.1606C1.63943 12.9595 1.61374 12.6511 1.77642 12.3968L2.636 11.19L2.47158 10.8974C2.30799 10.5863 2.17178 10.2634 2.06563 9.93465L1.971 9.613L0.501618 9.36242C0.242199 9.32251 0.0476291 9.12025 0.00759414 8.87164L0 8.77647V7.29059C0 6.99991 0.209771 6.74954 0.494872 6.70572L1.954 6.46L2.04473 6.13737C2.14937 5.80152 2.28136 5.47679 2.43956 5.16744L2.597 4.88L1.7245 3.65261C1.58145 3.44825 1.58375 3.17545 1.72308 2.97392L1.79115 2.89233L2.84292 1.84056C2.96608 1.71741 3.11492 1.66588 3.26353 1.66588C3.39436 1.66588 3.5167 1.7087 3.60675 1.77642L4.813 2.636L5.10615 2.47158C5.41723 2.30799 5.7401 2.17178 6.06888 2.06563L6.39 1.971L6.64111 0.501618C6.68102 0.242199 6.88328 0.0476291 7.13189 0.00759414ZM8.368 1H7.57L7.37385 2.15586C7.31617 2.48911 7.08983 2.76519 6.77778 2.89444L6.6569 2.93585C6.1901 3.05652 5.73647 3.24804 5.30957 3.50415C4.9778 3.69888 4.56154 3.68272 4.24383 3.45887L3.307 2.79L2.741 3.356L3.41853 4.30878C3.61886 4.58665 3.65727 4.94553 3.52593 5.25595L3.4687 5.36984C3.22481 5.78477 3.03988 6.24061 2.91919 6.72009C2.82504 7.09667 2.51545 7.37978 2.13219 7.44487L1 7.635V8.433L2.15586 8.62968C2.48911 8.68736 2.76519 8.9137 2.89444 9.22575L2.93585 9.34663C3.05652 9.81343 3.24804 10.2671 3.50415 10.694C3.69888 11.0257 3.68272 11.442 3.45887 11.7597L2.79 12.696L3.356 13.262L4.30398 12.5885C4.43733 12.4899 4.5934 12.4299 4.75474 12.4099L4.87647 12.4024C5.04568 12.4024 5.21569 12.4467 5.36526 12.5322C5.78585 12.7734 6.23169 12.9565 6.68703 13.0743C7.05959 13.1693 7.3412 13.4754 7.40614 13.8578L7.596 15H8.393L8.58581 13.864C8.63825 13.5231 8.86958 13.2385 9.18306 13.1138L9.30427 13.0747C9.78223 12.9512 10.2352 12.7635 10.6551 12.5135C10.9878 12.3183 11.4064 12.3346 11.717 12.5585L12.661 13.23L13.227 12.663L12.5536 11.715C12.3561 11.4347 12.3214 11.0774 12.454 10.7666L12.5116 10.6524C12.76 10.2352 12.9477 9.78223 13.0708 9.30591C13.1658 8.93335 13.4719 8.65174 13.8543 8.5868L15 8.395V7.599L13.864 7.40713C13.5231 7.35469 13.2385 7.12336 13.1138 6.80988L13.0747 6.68867C12.9512 6.21071 12.7635 5.75774 12.5135 5.33781C12.3183 5.00518 12.3346 4.58654 12.5585 4.27593L13.23 3.331L12.665 2.766L11.7256 3.44286C11.4453 3.64037 11.088 3.6751 10.7785 3.54327L10.6649 3.48601C10.2337 3.23182 9.77 3.04164 9.28344 2.91919C8.90686 2.82504 8.62375 2.51545 8.55866 2.13219L8.368 1Z" fill="black"/>
</svg>
