<svg width="16" height="16" viewBox="0 0 16 16" fill="none" xmlns="http://www.w3.org/2000/svg">
<g clip-path="url(#clip0_2:351)">
<path d="M8.5 0L8.50033 1.51897C11.6916 1.7619 14.2387 4.30926 14.4811 7.50067L16 7.5V8.5L14.481 8.50033C14.2381 11.6913 11.6913 14.2381 8.50033 14.481L8.5 16H7.5L7.50067 14.4811C4.30926 14.2387 1.7619 11.6916 1.51897 8.50033L0 8.5V7.5L1.51889 7.50067C1.76136 4.30893 4.30893 1.76136 7.50067 1.51889L7.5 0H8.5ZM8.50061 2.52239L8.5 4H7.5L7.50039 2.52239C4.86151 2.76 2.76 4.86151 2.52239 7.50039L4 7.5V8.5L2.52239 8.50061C2.76053 11.139 4.86184 13.24 7.50039 13.4776L7.5 12H8.5L8.50061 13.4776C11.1387 13.2395 13.2395 11.1387 13.4776 8.50061L12 8.5V7.5L13.4776 7.50039C13.247 4.93945 11.261 2.8846 8.73199 2.54828L8.50061 2.52239Z" fill="black"/>
</g>
<defs>
<clipPath id="clip0_2:351">
<rect width="16" height="16" fill="white"/>
</clipPath>
</defs>
</svg>
