<svg width="16" height="16" viewBox="0 0 16 16" fill="none" xmlns="http://www.w3.org/2000/svg">
<path d="M8 3.5C12.0609 3.5 15.368 6.72747 15.4961 10.7573L15.5 11V11.5H12.5V10.5H14.48L14.4635 10.3069C14.3211 8.96384 13.7697 7.74283 12.9362 6.77086L11.3536 8.35355L10.6464 7.64645L12.2288 6.06354C11.2107 5.19057 9.91943 4.6271 8.50083 4.51901L8.5 6.5H7.5L7.50072 4.51889C6.0816 4.62669 4.78983 5.19017 3.77139 6.06336L7.74122 10.0338C7.82376 10.0118 7.91051 10 8 10C8.55229 10 9 10.4477 9 11C9 11.5523 8.55229 12 8 12C7.44772 12 7 11.5523 7 11C7 10.9105 7.01176 10.8238 7.03381 10.7412L3.06366 6.77104C2.23022 7.74298 1.67886 8.96392 1.53651 10.3069L1.519 10.5H3.5V11.5H0.5V11C0.5 6.85786 3.85786 3.5 8 3.5Z" fill="black"/>
</svg>
