<?xml version="1.0" encoding="UTF-8"?>
<svg width="16px" height="16px" viewBox="0 0 16 16" version="1.1" xmlns="http://www.w3.org/2000/svg" xmlns:xlink="http://www.w3.org/1999/xlink">
    <!-- Generator: Sketch 62 (91390) - https://sketch.com -->
    <title>draft</title>
    <desc>Created with Sketch.</desc>
    <g id="draft" stroke="none" stroke-width="1" fill="none" fill-rule="evenodd">
        <path d="M13.5,15 L13.5,16 L1.5,16 L1.5,15 L13.5,15 Z M8,4 L7.999,11.793 L10.5,9.29289322 L11.2071068,10 L7.5,13.7071068 L3.79289322,10 L4.5,9.29289322 L6.999,11.793 L7,4 L8,4 Z M12.5,0.5 C13.0549979,0.5 13.3908382,0.702948671 13.9569642,1.25191384 L14.1035534,1.39644661 C14.527859,1.82075225 14.7297586,1.97239754 14.9373303,1.99646276 L15,2 L15,3 C14.4450021,3 14.1091618,2.79705133 13.5430358,2.24808616 L13.3964466,2.10355339 C12.9297104,1.63681718 12.7320856,1.5 12.5,1.5 C12.3101118,1.5 12.1432924,1.59158836 11.8332727,1.88052861 L11.6035534,2.10355339 C10.9452896,2.76181718 10.6012478,3 10,3 C9.44500208,3 9.10916185,2.79705133 8.54303583,2.24808616 L8.39644661,2.10355339 C7.9297104,1.63681718 7.73208558,1.5 7.5,1.5 C7.3101118,1.5 7.14329237,1.59158836 6.83327267,1.88052861 L6.60355339,2.10355339 C5.9452896,2.76181718 5.60124775,3 5,3 C4.44500208,3 4.10916185,2.79705133 3.54303583,2.24808616 L3.39644661,2.10355339 C2.9297104,1.63681718 2.73208558,1.5 2.5,1.5 C2.29870579,1.5 2.12061886,1.60797071 1.77369232,1.94621758 L1.46228889,2.25638649 C0.961173603,2.74476621 0.628519642,2.95973942 0.148682337,2.99478927 L2.7533531e-14,3 L2.7533531e-14,2 C0.22502088,2 0.411820439,1.88571666 0.788144468,1.51685819 L0.940698115,1.36430453 C1.55680132,0.741652123 1.91033021,0.5 2.5,0.5 C3.05499792,0.5 3.39083815,0.702948671 3.95696417,1.25191384 L4.10355339,1.39644661 C4.5702896,1.86318282 4.76791442,2 5,2 C5.1898882,2 5.35670763,1.90841164 5.66672733,1.61947139 L5.89644661,1.39644661 C6.5547104,0.738182816 6.89875225,0.5 7.5,0.5 C8.05499792,0.5 8.39083815,0.702948671 8.95696417,1.25191384 L9.10355339,1.39644661 C9.5702896,1.86318282 9.76791442,2 10,2 C10.1898882,2 10.3567076,1.90841164 10.6667273,1.61947139 L10.8964466,1.39644661 C11.5547104,0.738182816 11.8987522,0.5 12.5,0.5 Z" id="Shape" fill="#000000" fill-rule="nonzero"></path>
    </g>
</svg>