<svg width="16" height="16" viewBox="0 0 16 16" fill="none" xmlns="http://www.w3.org/2000/svg">
<path fill-rule="evenodd" clip-rule="evenodd" d="M4.99997 1.49998C5.8284 1.49998 6.49997 2.17156 6.49997 2.99998C6.49997 3.82841 5.8284 4.49998 4.99997 4.49998C4.17154 4.49998 3.49997 3.82841 3.49997 2.99998C3.49997 2.17156 4.17154 1.49998 4.99997 1.49998ZM4.99997 3.49998C5.27611 3.49998 5.49997 3.27613 5.49997 2.99998C5.49997 2.72384 5.27611 2.49998 4.99997 2.49998C4.72383 2.49998 4.49997 2.72384 4.49997 2.99998C4.49997 3.27613 4.72383 3.49998 4.99997 3.49998Z" fill="black"/>
<path fill-rule="evenodd" clip-rule="evenodd" d="M6.49997 7.99998C6.49997 7.17156 5.8284 6.49998 4.99997 6.49998C4.17154 6.49998 3.49997 7.17156 3.49997 7.99998C3.49997 8.82841 4.17154 9.49998 4.99997 9.49998C5.8284 9.49998 6.49997 8.82841 6.49997 7.99998ZM5.49997 7.99998C5.49997 8.27613 5.27611 8.49998 4.99997 8.49998C4.72383 8.49998 4.49997 8.27613 4.49997 7.99998C4.49997 7.72384 4.72383 7.49998 4.99997 7.49998C5.27611 7.49998 5.49997 7.72384 5.49997 7.99998Z" fill="black"/>
<path fill-rule="evenodd" clip-rule="evenodd" d="M4.99997 11.5C5.8284 11.5 6.49997 12.1716 6.49997 13C6.49997 13.8284 5.8284 14.5 4.99997 14.5C4.17154 14.5 3.49997 13.8284 3.49997 13C3.49997 12.1716 4.17154 11.5 4.99997 11.5ZM4.99997 13.5C5.27611 13.5 5.49997 13.2761 5.49997 13C5.49997 12.7238 5.27611 12.5 4.99997 12.5C4.72383 12.5 4.49997 12.7238 4.49997 13C4.49997 13.2761 4.72383 13.5 4.99997 13.5Z" fill="black"/>
<path fill-rule="evenodd" clip-rule="evenodd" d="M11 1.49998C11.8284 1.49998 12.5 2.17156 12.5 2.99998C12.5 3.82841 11.8284 4.49998 11 4.49998C10.1715 4.49998 9.49997 3.82841 9.49997 2.99998C9.49997 2.17156 10.1715 1.49998 11 1.49998ZM11 3.49998C11.2761 3.49998 11.5 3.27613 11.5 2.99998C11.5 2.72384 11.2761 2.49998 11 2.49998C10.7238 2.49998 10.5 2.72384 10.5 2.99998C10.5 3.27613 10.7238 3.49998 11 3.49998Z" fill="black"/>
<path fill-rule="evenodd" clip-rule="evenodd" d="M12.5 7.99998C12.5 7.17156 11.8284 6.49998 11 6.49998C10.1715 6.49998 9.49997 7.17156 9.49997 7.99998C9.49997 8.82841 10.1715 9.49998 11 9.49998C11.8284 9.49998 12.5 8.82841 12.5 7.99998ZM11.5 7.99998C11.5 8.27613 11.2761 8.49998 11 8.49998C10.7238 8.49998 10.5 8.27613 10.5 7.99998C10.5 7.72384 10.7238 7.49998 11 7.49998C11.2761 7.49998 11.5 7.72384 11.5 7.99998Z" fill="black"/>
<path fill-rule="evenodd" clip-rule="evenodd" d="M11 11.5C11.8284 11.5 12.5 12.1716 12.5 13C12.5 13.8284 11.8284 14.5 11 14.5C10.1715 14.5 9.49997 13.8284 9.49997 13C9.49997 12.1716 10.1715 11.5 11 11.5ZM11 13.5C11.2761 13.5 11.5 13.2761 11.5 13C11.5 12.7238 11.2761 12.5 11 12.5C10.7238 12.5 10.5 12.7238 10.5 13C10.5 13.2761 10.7238 13.5 11 13.5Z" fill="black"/>
</svg>
