<svg width="16" height="16" viewBox="0 0 16 16" fill="none" xmlns="http://www.w3.org/2000/svg">
<path fill-rule="evenodd" clip-rule="evenodd" d="M15.2073 4.49691L11.4999 0.793121L0 12.2899V15.9971H3.70711L4.498 15.2051L4.50355 15.2107L5.21066 14.5036L5.205 14.4981L12.498 7.20512L12.5036 7.21067L13.2107 6.50356L13.205 6.49812L15.2073 4.49691ZM1 12.703L1.497 12.2041L3.79 14.4971L3.292 14.997H1V12.703ZM2.204 11.4971L9.498 4.20512L11.79 6.49712L4.497 13.7901L2.204 11.4971ZM10.205 3.49812L11.5 2.20601L13.792 4.49701L12.497 5.79012L10.205 3.49812Z" fill="black"/>
<path d="M14 16V15H7V16H14Z" fill="black"/>
</svg>
