<svg width="16" height="16" viewBox="0 0 16 16" fill="none" xmlns="http://www.w3.org/2000/svg">
<path d="M1.67045 7.12399C1.87812 6.94198 2.19402 6.96278 2.37603 7.17045C3.48422 8.43486 5.56103 9.3323 8.00001 9.3323C10.439 9.3323 12.5158 8.43486 13.624 7.17045C13.806 6.96278 14.1219 6.94198 14.3296 7.12399C14.5372 7.306 14.5581 7.6219 14.376 7.82957C14.1691 8.06569 13.9374 8.28852 13.6838 8.49653L14.8536 9.66625C15.0488 9.86151 15.0488 10.1781 14.8536 10.3734C14.6583 10.5686 14.3417 10.5686 14.1464 10.3734L12.8524 9.07929C12.1896 9.47611 11.4305 9.79042 10.607 10.005L10.9903 11.9217C11.0445 12.1925 10.8689 12.4559 10.5981 12.5101C10.3273 12.5642 10.0639 12.3886 10.0097 12.1179L9.62769 10.2077C9.10187 10.2895 8.55696 10.3323 8.00001 10.3323C7.44307 10.3323 6.89815 10.2895 6.37233 10.2077L5.9903 12.1179C5.93614 12.3886 5.67273 12.5642 5.40195 12.5101C5.13117 12.4559 4.95556 12.1925 5.00971 11.9217L5.39307 10.005C4.56953 9.79041 3.81042 9.47611 3.14764 9.07928L1.85355 10.3734C1.65829 10.5686 1.34171 10.5686 1.14645 10.3734C0.951184 10.1781 0.951184 9.86151 1.14645 9.66625L2.31618 8.49652C2.0626 8.28851 1.83093 8.06568 1.62399 7.82957C1.44198 7.6219 1.46278 7.306 1.67045 7.12399Z" fill="black"/>
</svg>
