<svg width="16" height="16" viewBox="0 0 16 16" fill="none" xmlns="http://www.w3.org/2000/svg">
<g clip-path="url(#clip0_2:367)">
<path fill-rule="evenodd" clip-rule="evenodd" d="M5 8C5 6.34315 6.34315 5 8 5C9.65685 5 11 6.34315 11 8C11 9.65685 9.65685 11 8 11C6.34315 11 5 9.65685 5 8ZM10 8C10 6.89543 9.10457 6 8 6C6.89543 6 6 6.89543 6 8C6 9.10457 6.89543 10 8 10C9.10457 10 10 9.10457 10 8Z" fill="black"/>
<path fill-rule="evenodd" clip-rule="evenodd" d="M0.105317 7.69303C2.52574 4.58105 5.16083 3 7.99999 3C10.8392 3 13.4742 4.58105 15.8947 7.69303L16.1334 8L15.6519 8.61306C13.2983 11.5226 10.7445 13 7.99999 13C5.16083 13 2.52574 11.4189 0.105317 8.30697L-0.133438 8L0.105317 7.69303ZM14.6389 7.73039C12.6103 5.32259 10.4857 4.09285 8.25755 4.00506L7.99999 4C5.67783 4 3.46772 5.22998 1.3611 7.73039L1.13799 8L1.3611 8.26961C3.3897 10.6774 5.51426 11.9071 7.74244 11.9949L7.99999 12C10.3222 12 12.5323 10.77 14.6389 8.26961L14.861 8L14.6389 7.73039Z" fill="black"/>
</g>
<defs>
<clipPath id="clip0_2:367">
<rect width="16" height="16" fill="white"/>
</clipPath>
</defs>
</svg>
