<svg width="16" height="16" viewBox="0 0 16 16" fill="none" xmlns="http://www.w3.org/2000/svg">
<path fill-rule="evenodd" clip-rule="evenodd" d="M4.95852 7.5C6.44502 7.5 7.679 6.41886 7.91704 5H16V4H7.91704C7.679 2.58114 6.44502 1.5 4.95852 1.5C3.47202 1.5 2.23804 2.58114 2 4H0V5H2C2.23804 6.41886 3.47202 7.5 4.95852 7.5ZM4.95852 6.5C6.06309 6.5 6.95852 5.60457 6.95852 4.5C6.95852 3.39543 6.06309 2.5 4.95852 2.5C3.85395 2.5 2.95852 3.39543 2.95852 4.5C2.95852 5.60457 3.85395 6.5 4.95852 6.5Z" fill="black"/>
<path fill-rule="evenodd" clip-rule="evenodd" d="M8.04148 12H0V11H8.04148C8.27952 9.58114 9.5135 8.5 11 8.5C12.4865 8.5 13.7205 9.58114 13.9585 11H16V12H13.9585C13.7205 13.4189 12.4865 14.5 11 14.5C9.5135 14.5 8.27952 13.4189 8.04148 12ZM13 11.5C13 12.6046 12.1046 13.5 11 13.5C9.89543 13.5 9 12.6046 9 11.5C9 10.3954 9.89543 9.5 11 9.5C12.1046 9.5 13 10.3954 13 11.5Z" fill="black"/>
</svg>
