<svg width="16" height="16" viewBox="0 0 16 16" fill="none" xmlns="http://www.w3.org/2000/svg">
<g clip-path="url(#clip0_2:364)">
<path d="M5.29289 3C5.81321 3 6.31459 3.18373 6.71029 3.51526L6.75195 3.55267C7.43792 3.19371 8.2079 3 9 3C10.2949 3 11.5631 3.35381 12.6685 4.02027L12.9415 4.19338L14.151 4.999L16 5V5.99194L13.8486 6L12.3868 5.02543C11.3838 4.3568 10.2054 4 9 4C7.95144 4 6.95175 4.42764 6.22867 5.17818L6.07805 5.34391L5.53008 5.98321C5.05094 6.5422 5.08295 7.37585 5.60355 7.89645C6.06564 8.35853 6.79569 8.38934 7.29351 7.98886L7.39645 7.89645L8.64645 6.64645C8.84171 6.45118 9.15829 6.45118 9.35355 6.64645C9.52712 6.82001 9.5464 7.08944 9.41141 7.28431L9.35355 7.35355L9.207 7.5L12.707 11H16V12L12.8042 12.0019C12.171 13.1242 11.1946 13.5379 9.99085 13.2141L9.843 13.17L9.81437 13.2569C9.32607 14.5557 8.18459 14.8519 6.62707 14.1248L6.583 14.102L6.48258 14.1815C5.75234 14.7128 4.96369 14.6431 4.26819 13.9772L1.43934 11.1464C1.36433 11.0714 1.26793 11.0227 1.16448 11.0062L1.08579 11H0V10H1.08579C1.43388 10 1.7695 10.121 2.03642 10.3397L2.14645 10.4393L4.86614 13.1595C5.32922 13.6575 5.66184 13.6575 6.13711 13.156C6.29317 12.9914 6.54053 12.9524 6.73964 13.0612C8.18281 13.8492 8.79139 13.6464 9.00751 12.4137C9.06439 12.0892 9.41395 11.9075 9.71219 12.0473C10.6912 12.5061 11.3446 12.4005 11.822 11.6931L11.885 11.592L8.499 8.207L8.10355 8.60355C7.21794 9.48917 5.78206 9.48917 4.89645 8.60355C4.04874 7.75585 3.95873 6.42268 4.65973 5.47203L4.77082 5.33242L5.31879 4.69312C5.48818 4.49549 5.6719 4.31329 5.86775 4.14753C5.73328 4.07262 5.58394 4.02528 5.4291 4.0077L5.29289 4H4.75C4.1035 4 3.4678 4.15618 2.8965 4.4537L2.68538 4.57187L1.13849 5.5H0V4.5L0.862 4.499L2.17089 3.71437C2.87206 3.29367 3.66427 3.05159 4.47804 3.00738L4.75 3H5.29289Z" fill="black"/>
</g>
<defs>
<clipPath id="clip0_2:364">
<rect width="16" height="16" fill="white"/>
</clipPath>
</defs>
</svg>
