<svg width="16" height="16" viewBox="0 0 16 16" fill="none" xmlns="http://www.w3.org/2000/svg">
<path d="M3 1V11.5H4V6.5H12V9H13V1H12V5.5H4V1H3Z" fill="black"/>
<path d="M11.6035 11.6035C11.6683 11.5388 11.725 11.4723 11.7798 11.4083C11.9659 11.1903 12.1285 11 12.5 11C12.6633 11 12.7877 11.0465 12.8628 11.1107C12.9246 11.1635 13 11.2668 13 11.5C13 11.6245 12.9528 11.7832 12.8269 11.9898C12.7013 12.1959 12.5179 12.4164 12.2915 12.658C12.1405 12.8191 11.9839 12.9757 11.821 13.1385L11.8169 13.1426C11.7335 13.226 11.6485 13.311 11.5616 13.3992C11.3129 13.6519 11.0587 13.9217 10.85 14.2C10.7364 14.3515 10.7181 14.5542 10.8028 14.7236C10.8875 14.893 11.0606 15 11.25 15H14V14H12.374C12.4189 13.955 12.4647 13.9092 12.511 13.8628L12.5123 13.8616C12.6823 13.6915 12.8594 13.5143 13.021 13.342C13.2633 13.0836 13.5018 12.8041 13.6809 12.5102C13.8597 12.2168 14 11.8755 14 11.5C14 11.0144 13.8254 10.6177 13.5122 10.3503C13.2123 10.0941 12.8367 10 12.5 10C11.9802 10 11.5992 10.2069 11.3342 10.4301C11.205 10.5388 11.1039 10.6508 11.0292 10.7387C11.0044 10.7678 10.9793 10.7982 10.9591 10.8228L10.9582 10.8238L10.9364 10.8502C10.9242 10.8649 10.9149 10.8758 10.9074 10.8844L10.899 10.8937L10.8964 10.8965L11.6035 11.6035Z" fill="black"/>
</svg>
