<svg width="16" height="16" viewBox="0 0 16 16" fill="none" xmlns="http://www.w3.org/2000/svg">
<path fill-rule="evenodd" clip-rule="evenodd" d="M4.5 5C3.67157 5 3 5.67157 3 6.5V8.5C3 9.32843 3.67157 10 4.5 10H6.5C7.32843 10 8 9.32843 8 8.5V6.5C8 5.67157 7.32843 5 6.5 5H4.5ZM4 6.5C4 6.22386 4.22386 6 4.5 6H6.5C6.77614 6 7 6.22386 7 6.5V8.5C7 8.77614 6.77614 9 6.5 9H4.5C4.22386 9 4 8.77614 4 8.5V6.5Z" fill="black"/>
<path d="M10 5.5C10 5.22386 10.2239 5 10.5 5H12.5C12.7761 5 13 5.22386 13 5.5C13 5.77614 12.7761 6 12.5 6H10.5C10.2239 6 10 5.77614 10 5.5Z" fill="black"/>
<path d="M10.5 8C10.2239 8 10 8.22386 10 8.5C10 8.77614 10.2239 9 10.5 9H12.5C12.7761 9 13 8.77614 13 8.5C13 8.22386 12.7761 8 12.5 8H10.5Z" fill="black"/>
<path fill-rule="evenodd" clip-rule="evenodd" d="M2.5 2C1.11929 2 0 3.11929 0 4.5V11.5C0 12.8807 1.11929 14 2.5 14H13.5C14.8807 14 16 12.8807 16 11.5V4.5C16 3.11929 14.8807 2 13.5 2H2.5ZM1 4.5C1 3.67157 1.67157 3 2.5 3H13.5C14.3284 3 15 3.67157 15 4.5V11.5C15 12.3284 14.3284 13 13.5 13H2.5C1.67157 13 1 12.3284 1 11.5V4.5Z" fill="black"/>
</svg>
