<svg width="16" height="16" viewBox="0 0 16 16" fill="none" xmlns="http://www.w3.org/2000/svg">
<path d="M0 4H2V12H0V13H5V12H3V4H5V3H0V4Z" fill="black"/>
<path fill-rule="evenodd" clip-rule="evenodd" d="M9 4H7V3H11V3.00948C12.3369 3.06183 13.5364 3.33914 14.4339 4.04434C15.4683 4.8571 16 6.15377 16 8C16 9.80454 15.6156 11.1149 14.6355 11.9442C13.7702 12.6763 12.5355 12.9475 11 12.9929V13H7V12H9V4ZM10 4H10.5C11.9632 4 13.0742 4.24773 13.8161 4.83066C14.5317 5.3929 15 6.34623 15 8C15 9.69546 14.6344 10.6351 13.9895 11.1808C13.3218 11.7458 12.2314 12 10.5 12H10V4Z" fill="black"/>
</svg>
