<svg width="16" height="16" viewBox="0 0 16 16" fill="none" xmlns="http://www.w3.org/2000/svg">
<path fill-rule="evenodd" clip-rule="evenodd" d="M7.41366 3.26231C7.41322 3.24912 7.41243 3.23208 7.411 3.21166C7.40814 3.17093 7.40269 3.11609 7.39227 3.05097C7.37164 2.92203 7.33035 2.7454 7.24608 2.5558C7.07215 2.16445 6.71445 1.7248 6.03544 1.55505C5.33144 1.37905 4.79354 1.65317 4.45992 1.94508C4.29634 2.08822 4.17635 2.23887 4.09747 2.35225C4.05758 2.40959 4.02695 2.45922 4.00544 2.49619L3.96738 2.56568L2.98088 4.53867L2.02484 5.97274C0.930129 7.09132 -0.129069 9.2783 0.949939 11.9758C1.54882 13.473 3.15344 14.147 4.55337 14.4652C5.98314 14.7901 7.40286 14.7901 7.90908 14.7901H9.41418L9.49277 14.7869C9.5334 14.784 9.58819 14.7784 9.65263 14.7677C9.77912 14.7466 9.95543 14.7035 10.1378 14.6123C10.3221 14.5202 10.5216 14.3741 10.674 14.1456C10.8284 13.914 10.9142 13.6276 10.9142 13.2901C10.9142 13.0845 10.8823 12.8978 10.8225 12.731C10.9189 12.7052 11.0272 12.6676 11.1378 12.6123C11.3221 12.5202 11.5216 12.3741 11.674 12.1456C11.8284 11.914 11.9142 11.6276 11.9142 11.2901C11.9142 11.0845 11.8823 10.8978 11.8225 10.731C11.9189 10.7052 12.0272 10.6676 12.1378 10.6123C12.3221 10.5202 12.5216 10.3741 12.674 10.1456C12.8284 9.91397 12.9142 9.62761 12.9142 9.29012C12.9142 9.10845 12.8893 8.9416 12.8423 8.79012L14.4142 8.79012C14.4397 8.79012 14.7833 8.78957 15.1378 8.61233C15.3221 8.52017 15.5216 8.37409 15.674 8.14559C15.8284 7.91397 15.9142 7.62761 15.9142 7.29012C15.9142 6.95263 15.8284 6.66627 15.674 6.43465C15.5216 6.20615 15.3221 6.06007 15.1378 5.96791C14.7833 5.79067 14.4397 5.79012 14.4142 5.79012L7.00441 5.79012L7.40737 3.37232L7.41366 3.26231ZM3.8614 5.01373L4.86 3.01653C4.86142 3.01388 4.86496 3.00741 4.8698 2.99909C4.87953 2.98236 4.89578 2.95581 4.91839 2.92331C4.96451 2.85701 5.03202 2.77328 5.11844 2.69766C5.28482 2.55207 5.49691 2.4512 5.79292 2.5252C6.11391 2.60545 6.25621 2.7908 6.33228 2.96194C6.37301 3.0536 6.39422 3.14259 6.40484 3.20896C6.40826 3.23032 6.41045 3.24853 6.41185 3.26275L5.92099 6.20793C5.89682 6.3529 5.93767 6.50117 6.03267 6.61331C6.12768 6.72546 6.26721 6.79013 6.41418 6.79013L14.4114 6.79015C14.4114 6.79015 14.5557 6.79489 14.6906 6.86234C14.7563 6.89518 14.8067 6.93659 14.8419 6.98935C14.875 7.03898 14.9142 7.12762 14.9142 7.29013C14.9142 7.45263 14.875 7.54127 14.8419 7.5909C14.8067 7.64366 14.7563 7.68507 14.6906 7.71791C14.5557 7.78536 14.4114 7.79011 14.4114 7.79011L14.4128 7.79013L9.41418 7.79013C9.13804 7.79013 8.91418 8.01398 8.91418 8.29013C8.91418 8.56627 9.13804 8.79013 9.41418 8.79013H11.4097L11.4215 8.79081C11.4356 8.79181 11.4589 8.79406 11.4882 8.79895C11.5492 8.80911 11.6229 8.82852 11.6906 8.86234C11.7563 8.89518 11.8067 8.93659 11.8419 8.98935C11.875 9.03898 11.9142 9.12762 11.9142 9.29013C11.9142 9.45263 11.875 9.54127 11.8419 9.5909C11.8067 9.64366 11.7563 9.68507 11.6906 9.71791C11.6229 9.75173 11.5492 9.77114 11.4882 9.7813C11.4589 9.78619 11.4356 9.78844 11.4215 9.78944L11.4097 9.79012H8.91418C8.63804 9.79012 8.41418 10.014 8.41418 10.2901C8.41418 10.5663 8.63804 10.7901 8.91418 10.7901H10.4097L10.4215 10.7908C10.4356 10.7918 10.4589 10.7941 10.4882 10.7989C10.5492 10.8091 10.6229 10.8285 10.6906 10.8623C10.7563 10.8952 10.8067 10.9366 10.8419 10.9893C10.875 11.039 10.9142 11.1276 10.9142 11.2901C10.9142 11.4526 10.875 11.5413 10.8419 11.5909C10.8067 11.6437 10.7563 11.6851 10.6906 11.7179C10.6229 11.7517 10.5492 11.7711 10.4882 11.7813C10.4589 11.7862 10.4356 11.7884 10.4215 11.7894L10.4097 11.7901H8.41418C8.13804 11.7901 7.91418 12.014 7.91418 12.2901C7.91418 12.5663 8.13804 12.7901 8.41418 12.7901H9.40967L9.42153 12.7908C9.43558 12.7918 9.45892 12.7941 9.48823 12.7989C9.54924 12.8091 9.62293 12.8285 9.69058 12.8623C9.75626 12.8952 9.80674 12.9366 9.84191 12.9894C9.87499 13.039 9.91418 13.1276 9.91418 13.2901C9.91418 13.4526 9.87499 13.5413 9.84191 13.5909C9.80674 13.6437 9.75626 13.6851 9.69058 13.7179C9.62293 13.7517 9.54924 13.7711 9.48823 13.7813C9.45892 13.7862 9.43558 13.7884 9.42153 13.7894L9.40967 13.7901H7.91418C7.41592 13.7901 6.0904 13.789 4.77499 13.4901C3.42492 13.1832 2.27954 12.6072 1.87842 11.6044C0.969182 9.33133 1.8749 7.53652 2.76774 6.64368C2.79102 6.6204 2.81194 6.59487 2.83021 6.56748L3.83021 5.06748C3.84171 5.05023 3.85213 5.03228 3.8614 5.01373Z" fill="black"/>
</svg>
