<svg width="16" height="16" viewBox="0 0 16 16" fill="none" xmlns="http://www.w3.org/2000/svg">
<path fill-rule="evenodd" clip-rule="evenodd" d="M4.23069 1.72945C4.10694 1.85471 4 2.08625 4 2.52439V7.99513H8C8.579 7.99513 9.08632 8.14139 9.45502 8.46607C9.83187 8.79792 9.99916 9.2592 9.99916 9.75C9.99916 10.2412 9.8315 10.7012 9.45295 11.0309C9.13565 11.3072 8.71668 11.4514 8.23918 11.4866C8.47501 11.708 8.69175 11.9546 8.86849 12.2124C9.02465 12.4401 8.96663 12.7513 8.73889 12.9075C8.51115 13.0637 8.19993 13.0056 8.04376 12.7779C7.82953 12.4655 7.52225 12.1567 7.19446 11.915C6.85907 11.6678 6.54772 11.5242 6.33323 11.4883C6.07673 11.4453 5.89599 11.2129 5.91755 10.9537C5.9391 10.6945 6.15575 10.4951 6.41583 10.4951H8C8.42331 10.4951 8.66591 10.3902 8.79621 10.2768C8.91725 10.1714 8.99916 10.0088 8.99916 9.75C8.99916 9.4908 8.91687 9.32464 8.79414 9.21656C8.66326 9.10131 8.421 8.99513 8 8.99513H3.50051C3.19048 8.99698 2.95465 9.14554 2.77957 9.3868C2.5957 9.64017 2.5 9.97334 2.5 10.25V10.5C2.5 12.0978 3.12982 13.1959 4.09707 13.9103C5.08472 14.6398 6.46875 15 8 15C9.52967 15 10.5187 14.6409 11.1204 14.1134C11.7119 13.5947 12 12.8505 12 11.9146V7C12 6.57707 11.8946 6.35171 11.7714 6.22855C11.6483 6.10539 11.4229 6 11 6C10.1333 6 10 6.4 10 6.5C10 6.77614 9.77614 7 9.5 7C9.22386 7 9 6.77614 9 6.5V6C9 5.57707 8.89461 5.35171 8.77145 5.22855C8.64829 5.10539 8.42293 5 8 5C7.57707 5 7.35171 5.10539 7.22855 5.22855C7.10539 5.35171 7 5.57707 7 6C7 6.27614 6.77614 6.5 6.5 6.5C6.22386 6.5 6 6.27614 6 6V2.52439C6 2.08625 5.89306 1.85471 5.76931 1.72945C5.64669 1.60534 5.42292 1.5 5 1.5C4.57708 1.5 4.35331 1.60534 4.23069 1.72945ZM7 4.19209V2.52439C7 1.93814 6.85694 1.40748 6.48069 1.02664C6.10331 0.644663 5.57708 0.5 5 0.5C4.42292 0.5 3.89669 0.644663 3.51931 1.02664C3.14306 1.40748 3 1.93814 3 2.52439V8C3 8.02098 3.00129 8.04166 3.0038 8.06195C2.55829 8.18523 2.21187 8.46647 1.97022 8.79948C1.6543 9.23483 1.5 9.77666 1.5 10.25V10.5C1.5 12.4022 2.27018 13.8041 3.50293 14.7147C4.71528 15.6102 6.33125 16 8 16C9.67033 16 10.9313 15.6091 11.7796 14.8653C12.6381 14.1126 13 13.0641 13 11.9146V7C13 6.42293 12.8554 5.89829 12.4786 5.52145C12.1017 5.14461 11.5771 5 11 5C10.5858 5 10.2072 5.08015 9.89348 5.22581C9.81104 4.95932 9.677 4.71989 9.47855 4.52145C9.10171 4.14461 8.57707 4 8 4C7.63823 4 7.29706 4.05683 7 4.19209Z" fill="black"/>
</svg>
