<svg width="16" height="16" viewBox="0 0 16 16" fill="none" xmlns="http://www.w3.org/2000/svg">
<path d="M6 3V4H4V3H6Z" fill="black"/>
<path d="M6 7V6H4V7H6Z" fill="black"/>
<path d="M6 9V10H4V9H6Z" fill="black"/>
<path d="M6 13V12H4V13H6Z" fill="black"/>
<path d="M12 3V4H7V3H12Z" fill="black"/>
<path d="M12 7V6H7V7H12Z" fill="black"/>
<path d="M12 9V10H7V9H12Z" fill="black"/>
<path d="M12 13V12H7V13H12Z" fill="black"/>
<path fill-rule="evenodd" clip-rule="evenodd" d="M15 0V16H1V0H15ZM14 1H2V15H14V1Z" fill="black"/>
</svg>
