<svg width="16" height="16" viewBox="0 0 16 16" fill="none" xmlns="http://www.w3.org/2000/svg">
<path d="M13.789 7.15345C15.0222 5.77927 14.9781 3.66442 13.6569 2.34315C12.29 0.976315 10.0739 0.976315 8.7071 2.34315L6.58578 4.46447L6.45366 4.60392C5.22047 5.9781 5.26451 8.09294 6.58578 9.41422C6.78105 9.60948 7.09763 9.60948 7.29289 9.41422C7.48815 9.21896 7.48815 8.90237 7.29289 8.70711C6.31658 7.7308 6.31658 6.14789 7.29289 5.17158L9.41421 3.05026L9.5342 2.93779C10.5162 2.07551 12.0125 2.113 12.9497 3.05026C13.9261 4.02657 13.9261 5.60948 12.9497 6.58579L11.8891 7.64645L11.8312 7.7157C11.6962 7.91057 11.7155 8.17999 11.8891 8.35356C12.0843 8.54882 12.4009 8.54882 12.5962 8.35356L13.6569 7.2929L13.789 7.15345Z" fill="black"/>
<path d="M9.54635 11.3961C10.7795 10.0219 10.7355 7.90707 9.41422 6.58579C9.21896 6.39053 8.90238 6.39053 8.70711 6.58579C8.51185 6.78105 8.51185 7.09764 8.70711 7.2929C9.68343 8.26921 9.68342 9.85212 8.70711 10.8284L6.58579 12.9498L6.4658 13.0622C5.48382 13.9245 3.98752 13.887 3.05026 12.9498C2.07395 11.9734 2.07395 10.3905 3.05026 9.41422L4.11092 8.35356L4.16878 8.28431C4.30377 8.08944 4.28449 7.82002 4.11092 7.64645C3.91566 7.45119 3.59908 7.45119 3.40381 7.64645L2.34315 8.70711L2.21103 8.84656C0.977837 10.2207 1.02188 12.3356 2.34315 13.6569C3.70999 15.0237 5.92607 15.0237 7.2929 13.6569L9.41422 11.5355L9.54635 11.3961Z" fill="black"/>
</svg>
