<svg width="16" height="16" viewBox="0 0 16 16" fill="none" xmlns="http://www.w3.org/2000/svg">
<path fill-rule="evenodd" clip-rule="evenodd" d="M5.5 6C5.5 4.61929 6.61929 3.5 8 3.5C9.38071 3.5 10.5 4.61929 10.5 6C10.5 7.38071 9.38071 8.5 8 8.5C6.61929 8.5 5.5 7.38071 5.5 6ZM9.5 6C9.5 5.17157 8.82843 4.5 8 4.5C7.17157 4.5 6.5 5.17157 6.5 6C6.5 6.82843 7.17157 7.5 8 7.5C8.82843 7.5 9.5 6.82843 9.5 6Z" fill="black"/>
<path fill-rule="evenodd" clip-rule="evenodd" d="M2.5 6.45238C2.5 3.44004 4.9635 1 8 1C11.0347 1 13.5 3.44361 13.5 6.45238C13.5 9.10212 11.7596 11.9033 8.32747 14.8778L8 15.1616L7.67253 14.8778C4.24039 11.9033 2.5 9.10212 2.5 6.45238ZM12.5 6.45238C12.5 3.99788 10.4844 2 8 2C5.51365 2 3.5 3.99448 3.5 6.45238C3.5 8.60152 4.88763 10.9782 7.70243 13.5647L8 13.833L8.29757 13.5647C11.0118 11.0706 12.3991 8.77155 12.4947 6.68352L12.5 6.45238Z" fill="black"/>
</svg>
