<svg width="16" height="16" viewBox="0 0 16 16" fill="none" xmlns="http://www.w3.org/2000/svg">
<path d="M5.4218 2.00591L5.48851 1.99991L5.57268 2.00498L10.489 2.98676L14.3787 2.01493C14.6656 1.94321 14.9443 2.13394 14.9926 2.41361L15 2.5V12.5C15 12.7008 14.8804 12.879 14.7014 12.9577L14.6213 12.9851L10.5782 13.9941L10.4913 14.0001L10.4019 13.9903L5.512 13.0118L1.62127 13.9851C1.33438 14.0568 1.05566 13.8661 1.00736 13.5864L1 13.5V3.5C1 3.29925 1.11955 3.12103 1.29855 3.04234L1.37873 3.01493L5.4218 2.00591ZM6 3.11V12.089L10 12.889V3.91L6 3.11ZM5 3.14L2 3.89V12.859L5 12.109V3.14ZM14 3.14L11 3.89V12.859L14 12.109V3.14Z" fill="black"/>
</svg>
