<svg width="16" height="16" viewBox="0 0 16 16" fill="none" xmlns="http://www.w3.org/2000/svg">
<path fill-rule="evenodd" clip-rule="evenodd" d="M4.00002 3.99998L14.7575 1.31062C15.3886 1.15284 16 1.6302 16 2.28077V11.7192C16 12.3698 15.3886 12.8471 14.7575 12.6894L6 10.5V15H3V9.99998C1.34315 9.99998 0 8.65684 0 6.99998C0 5.34313 1.34315 3.99998 3 3.99998H4.00002ZM15 11.7192L5 9.21921V4.78077L15 2.28077L15 11.7192ZM4 4.99998H3C1.89543 4.99998 1 5.89542 1 6.99998C1 8.10455 1.89543 8.99998 3 8.99998H4V4.99998ZM4 9.99999V14H5V10.25L4 9.99999Z" fill="black"/>
</svg>
