<svg width="16" height="16" viewBox="0 0 16 16" fill="none" xmlns="http://www.w3.org/2000/svg">
<path fill-rule="evenodd" clip-rule="evenodd" d="M12 0H6V3.06301C5.23068 3.26102 4.6405 3.90527 4.52184 4.70338C3.99012 4.89441 3.30924 5.2628 2.63793 5.96767C1.26652 7.40765 0 10.1789 0 15.5V16H15V15H1.00392C1.08065 10.1602 2.27042 7.80355 3.36207 6.65733C3.81962 6.1769 4.27064 5.89707 4.63874 5.73339C4.87153 6.3237 5.37703 6.77665 6 6.93699V11H7V13H11V11H12V0ZM10 11H8V12H10V11ZM11 10V1H7V3.06301C7.86261 3.28503 8.5 4.06808 8.5 5C8.5 5.93192 7.86261 6.71497 7 6.93699V10H11ZM6.5 4C5.94772 4 5.5 4.44772 5.5 5C5.5 5.55228 5.94772 6 6.5 6C7.05228 6 7.5 5.55228 7.5 5C7.5 4.44772 7.05228 4 6.5 4Z" fill="black"/>
</svg>
