<svg width="16" height="16" viewBox="0 0 16 16" fill="none" xmlns="http://www.w3.org/2000/svg">
<path fill-rule="evenodd" clip-rule="evenodd" d="M4.62828 14.2211C7.74215 15.3545 11.1852 13.749 12.3186 10.6351C13.4519 7.52122 11.8464 4.07817 8.73252 2.94481C7.90086 2.64211 7.04659 2.53462 6.21894 2.599C7.50805 4.29929 7.9348 6.5987 7.15033 8.754C6.36587 10.9093 4.56092 12.3964 2.48047 12.8703C3.07311 13.4516 3.79661 13.9184 4.62828 14.2211ZM1.27163 13.0282C2.04083 13.966 3.06394 14.7159 4.28626 15.1608C7.91911 16.4831 11.936 14.61 13.2583 10.9771C14.5805 7.34426 12.7074 3.32737 9.07454 2.00512C7.85223 1.56023 6.58644 1.47708 5.39444 1.70099C4.98967 1.77702 4.59341 1.88845 4.21025 2.03315C4.53107 2.25883 4.82319 2.51601 5.08382 2.7987C6.43371 4.26289 6.93874 6.41154 6.21064 8.41198C5.48254 10.4124 3.71452 11.7337 1.73928 11.9877C1.35791 12.0367 0.968827 12.046 0.578003 12.0126C0.778506 12.3697 1.01043 12.7098 1.27163 13.0282Z" fill="black"/>
</svg>
