<svg width="16" height="16" viewBox="0 0 16 16" fill="none" xmlns="http://www.w3.org/2000/svg">
<path d="M16 0V14C16 15.0544 15.1841 15.9182 14.1493 15.9945L14 16H2L1.85074 15.9945C0.867621 15.922 0.0821352 15.1388 0.00604447 14.1567L0 14V5H3V0H16ZM15 1H4V14L3.98871 14.2134L3.96401 14.3795L3.95976 14.4009C3.93696 14.5132 3.90468 14.6222 3.86383 14.7268L3.82605 14.8172L3.75015 14.9687L3.731 15H14C14.4734 15 14.8699 14.6711 14.9736 14.2293L14.9933 14.1166L15 14V1ZM3 6H1V14C1 14.4734 1.32893 14.8699 1.77071 14.9736L1.88338 14.9933L2 15C2.51284 15 2.93551 14.614 2.99327 14.1166L3 14V6ZM13 12V13H6V12H13ZM13 9V10H6V9H13ZM10 3V7H6V3H10ZM13 6V7H11V6H13ZM9 4H7V6H9V4ZM13 3V4H11V3H13Z" fill="black"/>
</svg>
