<svg width="16" height="16" viewBox="0 0 16 16" fill="none" xmlns="http://www.w3.org/2000/svg">
<path d="M2.76286 2.07468C2.91027 2.16578 3 2.32671 3 2.5V6H4V7H0.999998V6H2V3.30902L1.27639 3.67082L0.829178 2.77639L2.27639 2.05279C2.43139 1.97529 2.61546 1.98357 2.76286 2.07468Z" fill="black"/>
<path d="M1.77978 10.4083C1.72505 10.4724 1.66828 10.5388 1.60356 10.6036L0.896449 9.89645L0.899051 9.89369L0.907402 9.88438C0.914905 9.87582 0.924156 9.8649 0.936372 9.85022L0.95822 9.8238C0.978608 9.79909 1.00411 9.76818 1.02919 9.73868C1.10391 9.65077 1.20503 9.53881 1.33419 9.43004C1.59924 9.20684 1.9802 9 2.5 9C2.83674 9 3.21235 9.09412 3.51225 9.35028C3.82537 9.61774 4 10.0144 4 10.5C4 10.8755 3.85969 11.2168 3.68088 11.5102C3.50179 11.8041 3.26329 12.0836 3.02102 12.342C2.85943 12.5143 2.68235 12.6914 2.51227 12.8616L2.51151 12.8623C2.46502 12.9088 2.41905 12.9548 2.37407 13H4V14H1.25C1.06062 14 0.887485 13.893 0.802789 13.7236C0.718093 13.5542 0.736371 13.3515 0.850003 13.2C1.05871 12.9217 1.31288 12.652 1.56165 12.3992C1.64988 12.3096 1.73629 12.2232 1.82098 12.1385C1.9839 11.9757 2.14051 11.8191 2.29148 11.658C2.51797 11.4164 2.70134 11.1959 2.82694 10.9898C2.95282 10.7832 3 10.6245 3 10.5C3 10.2668 2.92463 10.1635 2.86276 10.1107C2.78766 10.0465 2.66327 10 2.5 10C2.12849 10 1.96593 10.1903 1.77978 10.4083Z" fill="black"/>
<path d="M15.5 3H6.5V4H15.5V3Z" fill="black"/>
<path d="M6.5 8H15.5V9H6.5V8Z" fill="black"/>
<path d="M15.5 13H6.5V14H15.5V13Z" fill="black"/>
</svg>
