<svg width="16" height="16" viewBox="0 0 16 16" fill="none" xmlns="http://www.w3.org/2000/svg">
<path fill-rule="evenodd" clip-rule="evenodd" d="M1.5 8C1.5 7.17157 2.17157 6.5 3 6.5C3.82843 6.5 4.5 7.17157 4.5 8C4.5 8.82843 3.82843 9.5 3 9.5C2.17157 9.5 1.5 8.82843 1.5 8ZM3.5 8C3.5 7.72386 3.27614 7.5 3 7.5C2.72386 7.5 2.5 7.72386 2.5 8C2.5 8.27614 2.72386 8.5 3 8.5C3.27614 8.5 3.5 8.27614 3.5 8Z" fill="black"/>
<path fill-rule="evenodd" clip-rule="evenodd" d="M8 6.5C7.17157 6.5 6.5 7.17157 6.5 8C6.5 8.82843 7.17157 9.5 8 9.5C8.82843 9.5 9.5 8.82843 9.5 8C9.5 7.17157 8.82843 6.5 8 6.5ZM8 7.5C8.27614 7.5 8.5 7.72386 8.5 8C8.5 8.27614 8.27614 8.5 8 8.5C7.72386 8.5 7.5 8.27614 7.5 8C7.5 7.72386 7.72386 7.5 8 7.5Z" fill="black"/>
<path fill-rule="evenodd" clip-rule="evenodd" d="M13 6.5C12.1716 6.5 11.5 7.17157 11.5 8C11.5 8.82843 12.1716 9.5 13 9.5C13.8284 9.5 14.5 8.82843 14.5 8C14.5 7.17157 13.8284 6.5 13 6.5ZM13 7.5C13.2761 7.5 13.5 7.72386 13.5 8C13.5 8.27614 13.2761 8.5 13 8.5C12.7239 8.5 12.5 8.27614 12.5 8C12.5 7.72386 12.7239 7.5 13 7.5Z" fill="black"/>
</svg>
