<svg width="16" height="16" viewBox="0 0 16 16" fill="none" xmlns="http://www.w3.org/2000/svg">
<path fill-rule="evenodd" clip-rule="evenodd" d="M8 8C9.10457 8 10 7.10457 10 6C10 4.89543 9.10457 4 8 4C6.89543 4 6 4.89543 6 6C6 7.10457 6.89543 8 8 8ZM8 7C8.55228 7 9 6.55228 9 6C9 5.44772 8.55228 5 8 5C7.44772 5 7 5.44772 7 6C7 6.55228 7.44772 7 8 7Z" fill="black"/>
<path fill-rule="evenodd" clip-rule="evenodd" d="M0 2V14H16V2H0ZM15 3H1V10.5284L3.98146 8.3988L8.01149 10.9176L11.5115 8.91757L15 11.0979V3ZM15 12.2771L11.4885 10.0825L7.98851 12.0825L4.01854 9.60122L1 11.7573V13H15V12.2771Z" fill="black"/>
</svg>
