<svg width="16" height="16" viewBox="0 0 16 16" fill="none" xmlns="http://www.w3.org/2000/svg">
<path d="M7 2V9H14C14 12.866 10.866 16 7 16C3.13401 16 0 12.866 0 9C0 5.21455 3.00478 2.1309 6.75935 2.00406L7 2ZM6 3.084L5.89765 3.10104C3.11046 3.61862 1 6.06285 1 9C1 12.3137 3.68629 15 7 15C9.93715 15 12.3814 12.8895 12.899 10.1023L12.915 10H6V3.084ZM8 1C11.7855 1 14.8691 4.00478 14.9959 7.75935L15 8H8V1ZM9 2.084V7H13.915L13.899 6.89765C13.4477 4.46779 11.5322 2.55227 9.10235 2.10104L9 2.084Z" fill="black"/>
</svg>
