<?xml version="1.0" encoding="UTF-8"?>
<svg width="16px" height="16px" viewBox="0 0 16 16" version="1.1" xmlns="http://www.w3.org/2000/svg" xmlns:xlink="http://www.w3.org/1999/xlink">
    <!-- Generator: Sketch 62 (91390) - https://sketch.com -->
    <title>pilot-boat</title>
    <desc>Created with Sketch.</desc>
    <g id="pilot-boat" stroke="none" stroke-width="1" fill="none" fill-rule="evenodd">
        <path d="M7.62116608,2.80740534 C12.1925947,2.80740534 15.5374417,7.06963812 15.5374417,7.06963812 C15.8714395,7.44575282 15.8967962,8.04896344 15.6064099,8.45798884 L15.4117316,8.69572572 C14.7876978,9.42995422 11.6957002,12.8074053 7.62116608,12.8074053 C3.87025033,12.8074053 1.92409179,12.3181302 1.34630896,12.142493 L1.15900788,12.0806597 C0.625272595,11.9297455 0.192594656,11.354369 0.192594656,10.8103752 L0.192594656,4.80443548 C0.192594656,4.2931227 0.560501907,3.75898319 1.04519645,3.5711753 L1.34630896,3.47231772 C1.92409179,3.29668049 3.87025033,2.80740534 7.62116608,2.80740534 Z M7.62116608,3.80740534 C5.67758337,3.80740534 4.09464883,3.93891054 2.84723575,4.15597367 C2.27138395,4.256178 1.87805848,4.35242537 1.65415535,4.42135868 L1.51778994,4.46757231 L1.414319,4.5010099 C1.33815469,4.52112203 1.23495566,4.64449367 1.20267166,4.74666928 L1.19259466,4.80443548 L1.19259466,10.8103752 C1.19259466,10.8947016 1.29339186,11.0397185 1.44058116,11.1156377 L1.51778994,11.1472384 C1.69280364,11.2145089 2.12742099,11.3335816 2.84723575,11.458837 C4.09464883,11.6759001 5.67758337,11.8074053 7.62116608,11.8074053 C9.37386803,11.8074053 11.0879237,11.0923957 12.6852031,9.88415208 C13.2557269,9.45258597 13.7689754,8.98891832 14.2146615,8.52637883 L14.4510996,8.27429549 C14.5918744,8.11967818 14.700972,7.99067698 14.7905372,7.87972958 C14.8129382,7.85532551 14.8134046,7.76032158 14.7507603,7.68699737 L14.5907696,7.49602002 C14.4972051,7.38901971 14.374128,7.25409284 14.2232614,7.0975145 C13.7763039,6.63363526 13.2617712,6.16863732 12.6900328,5.73584175 C11.1837152,4.59558665 9.57505879,3.89345977 7.93002093,3.81480212 L7.62116608,3.80740534 Z" id="Rectangle-11" fill="#000000" fill-rule="nonzero" transform="translate(8.000000, 7.807405) rotate(90.000000) translate(-8.000000, -7.807405) "></path>
        <path d="M8.5,2.5 C9.27969612,2.5 9.92044868,3.09488808 9.99313342,3.85553999 L10,4 L10,8 C10,8.77969612 9.40511192,9.42044868 8.64446001,9.49313342 L8.5,9.5 L7.5,9.5 C6.72030388,9.5 6.07955132,8.90511192 6.00686658,8.14446001 L6,8 L6,4 C6,3.22030388 6.59488808,2.57955132 7.35553999,2.50686658 L7.5,2.5 L8.5,2.5 Z M9.00070296,6.41439849 C8.89631092,6.45135462 8.78660936,6.47708102 8.67305027,6.49012572 L8.5,6.5 L7.5,6.5 C7.32479157,6.5 7.15659927,6.46996037 7.00029246,6.41475048 L7,8 C7,8.24545989 7.17687516,8.44960837 7.41012437,8.49194433 L7.5,8.5 L8.5,8.5 C8.74545989,8.5 8.94960837,8.32312484 8.99194433,8.08987563 L9,8 L9.00070296,6.41439849 Z M8.5,3.5 L7.5,3.5 C7.25454011,3.5 7.05039163,3.67687516 7.00805567,3.91012437 L7,4 L7,5 C7,5.24545989 7.17687516,5.44960837 7.41012437,5.49194433 L7.5,5.5 L8.5,5.5 C8.74545989,5.5 8.94960837,5.32312484 8.99194433,5.08987563 L9,5 L9,4 C9,3.75454011 8.82312484,3.55039163 8.58987563,3.50805567 L8.5,3.5 Z" id="Shape" fill="#000000" fill-rule="nonzero"></path>
    </g>
</svg>