<svg width="16" height="16" viewBox="0 0 16 16" fill="none" xmlns="http://www.w3.org/2000/svg">
<path fill-rule="evenodd" clip-rule="evenodd" d="M14.7071 8L11 4.29289L10.2929 5L12.792 7.49989L4.93699 7.49999C4.71497 6.63738 3.93192 6 3 6C1.89543 6 1 6.89543 1 8C1 9.10457 1.89543 10 3 10C3.93192 10 4.71497 9.36261 4.93699 8.49999L12.792 8.49989L10.2929 11L11 11.7071L14.7071 8ZM4 8C4 8.55228 3.55228 9 3 9C2.44772 9 2 8.55228 2 8C2 7.44772 2.44772 7 3 7C3.55228 7 4 7.44772 4 8Z" fill="black"/>
</svg>
