<svg width="16" height="16" viewBox="0 0 16 16" fill="none" xmlns="http://www.w3.org/2000/svg">
<path d="M8 7.2L11.25 15H4.75L8 7.2ZM8 9.8L6.249 14H9.75L8 9.8ZM2.6967 0.696701L3.40381 1.40381C0.920581 3.88703 0.866598 7.8796 3.24186 10.4284L3.40381 10.5962L2.6967 11.3033C-0.174803 8.4318 -0.231107 3.81116 2.52779 0.871063L2.6967 0.696701ZM13.3033 0.696701C16.1748 3.5682 16.2311 8.18885 13.4722 11.1289L13.3033 11.3033L12.5962 10.5962C15.0794 8.11297 15.1334 4.12041 12.7581 1.57156L12.5962 1.40381L13.3033 0.696701ZM4.46447 2.46447L5.17157 3.17157C3.65681 4.68634 3.61091 7.11373 5.03387 8.6838L5.17157 8.82843L4.46447 9.53554C2.56323 7.6343 2.5132 4.58287 4.31437 2.6211L4.46447 2.46447ZM11.5355 2.46447C13.4368 4.3657 13.4868 7.41713 11.6856 9.37891L11.5355 9.53554L10.8284 8.82843C12.3432 7.31367 12.3891 4.88628 10.9661 3.3162L10.8284 3.17157L11.5355 2.46447ZM6.23223 4.23223L6.93934 4.93934C6.38801 5.49067 6.35558 6.3644 6.84205 6.95366L6.93934 7.06066L6.23223 7.76777C5.29497 6.83051 5.25748 5.33421 6.11976 4.35223L6.23223 4.23223ZM9.76777 4.23223C10.705 5.16949 10.7425 6.6658 9.88024 7.64778L9.76777 7.76777L9.06066 7.06066C9.61199 6.50933 9.64442 5.6356 9.15795 5.04635L9.06066 4.93934L9.76777 4.23223Z" fill="black"/>
</svg>
