<svg width="16" height="16" viewBox="0 0 16 16" fill="none" xmlns="http://www.w3.org/2000/svg">
<path d="M14.5 7.5C14.5 11.0899 11.5899 14 8 14C6.02504 14 4.21032 13.111 2.99956 11.6542L3 14H2V9.5H6.5V10.5L3.38937 10.5006C4.389 12.0356 6.10739 13 8 13C10.9635 13 13.3795 10.6562 13.4956 7.72121L13.5 7.5H14.5ZM14 1V5.5H9.5V4.5L12.6109 4.49967C11.6128 2.96676 9.89472 2 8 2C5.03652 2 2.62046 4.34378 2.50437 7.27879L2.5 7.5H1.5C1.5 3.91015 4.41015 1 8 1C9.97708 1 11.7916 1.89092 13.0011 3.34654L13 1H14Z" fill="black"/>
</svg>
