<svg width="16" height="16" viewBox="0 0 16 16" fill="none" xmlns="http://www.w3.org/2000/svg">
<path d="M3.5 10.5C4.60457 10.5 5.5 11.3954 5.5 12.5C5.5 13.6046 4.60457 14.5 3.5 14.5C2.39543 14.5 1.5 13.6046 1.5 12.5C1.5 11.3954 2.39543 10.5 3.5 10.5ZM3.5 11.5C2.94772 11.5 2.5 11.9477 2.5 12.5C2.5 13.0523 2.94772 13.5 3.5 13.5C4.05228 13.5 4.5 13.0523 4.5 12.5C4.5 11.9477 4.05228 11.5 3.5 11.5ZM4.83889 9.39586L5.65785 9.9697L5.3844 10.3717L5.12221 10.7811L4.27269 10.2536L4.54984 9.82078L4.83889 9.39586ZM6.13511 7.75162L6.88432 8.41396L6.56734 8.78265L6.26068 9.15994L5.47603 8.53999L5.80012 8.14126L6.13511 7.75162ZM7.59341 6.2766L8.26425 7.0182L7.90819 7.34935L7.56139 7.6902L6.85064 6.98676L7.21712 6.62655L7.59341 6.2766ZM9.197 4.98019L9.78156 5.79153L9.39106 6.08118L9.0087 6.38153L8.38016 5.60375L8.78427 5.28631L9.197 4.98019ZM12.5 1.5C13.6046 1.5 14.5 2.39543 14.5 3.5C14.5 4.60457 13.6046 5.5 12.5 5.5C11.9556 5.5 11.462 5.28248 11.1014 4.92961L10.9995 4.98882L10.5862 5.24503L10.0475 4.40252L10.4844 4.13167L10.5835 4.07368C10.5292 3.89196 10.5 3.69939 10.5 3.5C10.5 2.39543 11.3954 1.5 12.5 1.5ZM12.5 2.5C11.9477 2.5 11.5 2.94772 11.5 3.5C11.5 4.05228 11.9477 4.5 12.5 4.5C13.0523 4.5 13.5 4.05228 13.5 3.5C13.5 2.94772 13.0523 2.5 12.5 2.5Z" fill="black"/>
</svg>
