<?xml version="1.0" encoding="UTF-8"?>
<svg width="16px" height="16px" viewBox="0 0 16 16" version="1.1" xmlns="http://www.w3.org/2000/svg" xmlns:xlink="http://www.w3.org/1999/xlink">
    <!-- Generator: Sketch 62 (91390) - https://sketch.com -->
    <title>satellite</title>
    <desc>Created with Sketch.</desc>
    <g id="satellite" stroke="none" stroke-width="1" fill="none" fill-rule="evenodd">
        <path d="M8.16726189,-0.83273811 L8.16726189,1.16626189 L9.66726189,1.16726189 L9.66726189,5.16626189 L15.6672619,5.16726189 L15.6672619,10.1672619 L9.66726189,10.1662619 L9.66796485,12.2528634 C10.206734,12.4435946 10.6040785,12.9334418 10.6603953,13.5228019 L10.6672619,13.6672619 L10.6672619,15.1672619 L8.16726189,15.1672619 L8.16726189,17.1672619 L7.16726189,17.1672619 L7.16726189,15.1672619 L4.66726189,15.1672619 L4.66726189,13.6672619 C4.66726189,13.0140432 5.0848054,12.458347 5.66755435,12.2525114 L5.66726189,10.1662619 L-0.33273811,10.1672619 L-0.33273811,5.16726189 L5.66726189,5.16626189 L5.66726189,1.16726189 L7.16726189,1.16626189 L7.16726189,-0.83273811 L8.16726189,-0.83273811 Z M9.16726189,13.1672619 L6.16726189,13.1672619 C5.921802,13.1672619 5.71765352,13.3441371 5.67531756,13.5773863 L5.66726189,13.6672619 L5.66726189,14.1672619 L9.66726189,14.1672619 L9.66726189,13.6672619 C9.66726189,13.4524845 9.53184184,13.2693361 9.34172809,13.1985432 L9.25713752,13.1753176 L9.16726189,13.1672619 Z M6.66726189,12.1672619 L8.66726189,12.1672619 L8.66726189,2.16726189 L6.66726189,2.16726189 L6.66726189,12.1672619 Z M14.6672619,6.16726189 L9.66726189,6.16726189 L9.66726189,9.16726189 L14.6672619,9.16726189 L14.6672619,6.16726189 Z M5.66726189,6.16726189 L0.66726189,6.16726189 L0.66726189,9.16726189 L5.66726189,9.16726189 L5.66726189,6.16726189 Z" id="Shape" fill="#000000" fill-rule="nonzero" transform="translate(7.667262, 8.167262) rotate(45.000000) translate(-7.667262, -8.167262) "></path>
    </g>
</svg>