<svg width="16" height="16" viewBox="0 0 16 16" fill="none" xmlns="http://www.w3.org/2000/svg">
<path d="M2 3.5C2 2.67157 2.67157 2 3.5 2H4.75V1H3.5C2.11929 1 1 2.11929 1 3.5V4.75H2V3.5Z" fill="black"/>
<path d="M11.25 2H12.5C13.3284 2 14 2.67157 14 3.5V4.75H15V3.5C15 2.11929 13.8807 1 12.5 1H11.25V2Z" fill="black"/>
<path d="M2 12.5V11.25H1V12.5C1 13.8807 2.11929 15 3.5 15H4.75V14H3.5C2.67157 14 2 13.3284 2 12.5Z" fill="black"/>
<path d="M14 11.25V12.5C14 13.3284 13.3284 14 12.5 14H11.25V15H12.5C13.8807 15 15 13.8807 15 12.5V11.25H14Z" fill="black"/>
<path fill-rule="evenodd" clip-rule="evenodd" d="M5 8C5 6.34315 6.34315 5 8 5C9.65685 5 11 6.34315 11 8C11 9.65685 9.65685 11 8 11C6.34315 11 5 9.65685 5 8ZM10 8C10 6.89543 9.10457 6 8 6C6.89543 6 6 6.89543 6 8C6 9.10457 6.89543 10 8 10C9.10457 10 10 9.10457 10 8Z" fill="black"/>
</svg>
