<?xml version="1.0" encoding="UTF-8"?>
<svg width="16px" height="16px" viewBox="0 0 16 16" version="1.1" xmlns="http://www.w3.org/2000/svg" xmlns:xlink="http://www.w3.org/1999/xlink">
    <!-- Generator: Sketch 62 (91390) - https://sketch.com -->
    <title>service</title>
    <desc>Created with Sketch.</desc>
    <g id="service" stroke="none" stroke-width="1" fill="none" fill-rule="evenodd">
        <path d="M2.5,7.29289322 L5.20710678,10 L4.5,10.7071068 L2.92589322,9.1327767 L2.92659124,13.9695258 L12.9264953,13.9695258 L12.9267767,9.96966991 L13.9267767,9.96966991 L13.9267767,14.4696699 C13.9267767,14.7151298 13.7499015,14.9192783 13.5166523,14.9616142 L13.4267767,14.9696699 L2.4267767,14.9696699 C2.18131681,14.9696699 1.97716832,14.7927948 1.93483236,14.5595455 L1.9267767,14.4696699 L1.92589322,9.2797767 L0.5,10.7071068 L-0.207106781,10 L2.5,7.29289322 Z M13.4267767,1.1767767 C13.6722366,1.1767767 13.8763851,1.35365186 13.918721,1.58690106 L13.9267767,1.6767767 L13.9258932,6.8667767 L15.5,5.29289322 L16.2071068,6 L13.5,8.70710678 L10.7928932,6 L11.5,5.29289322 L12.9258932,6.7187767 L12.9269622,2.17692082 L2.92705805,2.17692082 L2.9267767,6.1767767 L1.9267767,6.1767767 L1.9267767,1.6767767 C1.9267767,1.43131681 2.10365186,1.22716832 2.33690106,1.18483236 L2.4267767,1.1767767 L13.4267767,1.1767767 Z" id="Shape" fill="#000000" fill-rule="nonzero"></path>
    </g>
</svg>