<svg width="16" height="16" viewBox="0 0 16 16" fill="none" xmlns="http://www.w3.org/2000/svg">
<path d="M11.7071 4L8.00001 0.292892L4.29291 4L5.00001 4.70711L7.49991 2.20689L7.50001 10H8.50001L8.49991 2.20689L11 4.70711L11.7071 4Z" fill="black"/>
<path d="M3 7.5C3 7.22386 3.22386 7 3.5 7H5.75V6H3.5C2.67157 6 2 6.67157 2 7.5V14.5C2 15.3284 2.67157 16 3.5 16H12.5C13.3284 16 14 15.3284 14 14.5V7.5C14 6.67157 13.3284 6 12.5 6H10.25V7H12.5C12.7761 7 13 7.22386 13 7.5V14.5C13 14.7761 12.7761 15 12.5 15H3.5C3.22386 15 3 14.7761 3 14.5V7.5Z" fill="black"/>
</svg>
