<svg width="16" height="16" viewBox="0 0 16 16" fill="none" xmlns="http://www.w3.org/2000/svg">
<path d="M12 9C14.1614 9 15.8922 10.6993 15.9952 12.8494L16 13.0523V14.74C16 15.3912 15.5054 15.9288 14.8713 15.9935L14.7428 16H5.25723C4.60616 16 4.07086 15.5031 4.00649 14.8686L4 14.74V13.0523C4 10.8071 5.77109 9 8 9C8.27614 9 8.5 9.22386 8.5 9.5C8.5 9.77614 8.27614 10 8 10C6.38766 10 5.09529 11.2599 5.00504 12.8718L5 13.0523V14.74C5 14.8629 5.08528 14.9661 5.19853 14.9931L5.25723 15H14.7428C14.8638 15 14.9663 14.9143 14.9932 14.7995L15 14.74V13.0523C15 11.355 13.6721 10 12 10C11.7239 10 11.5 9.77614 11.5 9.5C11.5 9.22386 11.7239 9 12 9ZM10 1C11.9516 1 13.5 2.8065 13.5 5C13.5 7.1935 11.9516 9 10 9C8.04841 9 6.5 7.1935 6.5 5C6.5 2.8065 8.04841 1 10 1ZM10 2C8.63785 2 7.5 3.32751 7.5 5C7.5 6.67249 8.63785 8 10 8C11.3621 8 12.5 6.67249 12.5 5C12.5 3.32751 11.3621 2 10 2ZM3.5 2.5V4.5H5.5V5.5H3.5V7.5H2.5V5.5H0.5V4.5H2.5V2.5H3.5Z" fill="black"/>
</svg>
