<svg width="16" height="16" viewBox="0 0 16 16" fill="none" xmlns="http://www.w3.org/2000/svg">
<path d="M10.5 1.5C10.5 1.22386 10.2761 1 10 1H6L5.91012 1.00806C5.67688 1.05039 5.5 1.25454 5.5 1.5C5.5 1.77614 5.72386 2 6 2H10L10.0899 1.99194C10.3231 1.94961 10.5 1.74546 10.5 1.5Z" fill="black"/>
<path d="M4.64645 5.64645C4.82001 5.47288 5.08944 5.4536 5.28431 5.58859L5.35355 5.64645L8.43834 8.73123C8.6336 8.92649 8.6336 9.24308 8.43834 9.43834C8.26477 9.61191 7.99535 9.63119 7.80048 9.49619L7.73123 9.43834L4.64645 6.35355C4.45118 6.15829 4.45118 5.84171 4.64645 5.64645Z" fill="black"/>
<path fill-rule="evenodd" clip-rule="evenodd" d="M8 2.5C9.61487 2.5 11.0922 3.08889 12.2289 4.06364L13.1464 3.14645C13.3417 2.95118 13.6583 2.95118 13.8536 3.14645C14.0271 3.32001 14.0464 3.58944 13.9114 3.78431L13.8536 3.85355L12.9364 4.77106C13.9111 5.90781 14.5 7.38513 14.5 9C14.5 12.5899 11.5899 15.5 8 15.5C4.41015 15.5 1.5 12.5899 1.5 9C1.5 5.41015 4.41015 2.5 8 2.5ZM8 3.5C4.96243 3.5 2.5 5.96243 2.5 9C2.5 12.0376 4.96243 14.5 8 14.5C11.0376 14.5 13.5 12.0376 13.5 9C13.5 5.96243 11.0376 3.5 8 3.5Z" fill="black"/>
</svg>
