<svg width="16" height="16" viewBox="0 0 16 16" fill="none" xmlns="http://www.w3.org/2000/svg">
<path d="M7.5 2V0H8.5V2H7.5Z" fill="black"/>
<path d="M7.5 16V14H8.5V16H7.5Z" fill="black"/>
<path d="M16 8.5H14V7.5H16V8.5Z" fill="black"/>
<path d="M2 8.5H0V7.5H2V8.5Z" fill="black"/>
<path d="M13.3032 1.98959L14.0103 2.6967L12.5961 4.11091L11.889 3.40381L13.3032 1.98959Z" fill="black"/>
<path d="M2.69666 14.0104L1.98955 13.3033L3.40376 11.8891L4.11087 12.5962L2.69666 14.0104Z" fill="black"/>
<path d="M14.0103 13.3033L13.3032 14.0104L11.889 12.5962L12.5961 11.8891L14.0103 13.3033Z" fill="black"/>
<path d="M3.40373 4.11091L1.98952 2.6967L2.69662 1.98959L4.11084 3.40381L3.40373 4.11091Z" fill="black"/>
<path fill-rule="evenodd" clip-rule="evenodd" d="M12 8C12 10.2091 10.2091 12 8 12C5.79086 12 4 10.2091 4 8C4 5.79086 5.79086 4 8 4C10.2091 4 12 5.79086 12 8ZM11 8C11 9.65685 9.65685 11 8 11C6.34315 11 5 9.65685 5 8C5 6.34315 6.34315 5 8 5C9.65685 5 11 6.34315 11 8Z" fill="black"/>
</svg>
