<svg width="16" height="16" viewBox="0 0 16 16" fill="none" xmlns="http://www.w3.org/2000/svg">
<g clip-path="url(#clip0_2:402)">
<path d="M16.21 0V6.94975L7.22475 15.935L0.275002 8.98528L9.26028 0H16.21ZM15.211 0.999H9.67503L1.68903 8.985L7.22503 14.521L15.211 6.535V0.999ZM12 2C13.1046 2 14 2.89543 14 4C14 5.10457 13.1046 6 12 6C10.8954 6 10 5.10457 10 4C10 2.89543 10.8954 2 12 2ZM12 3C11.4477 3 11 3.44772 11 4C11 4.55228 11.4477 5 12 5C12.5523 5 13 4.55228 13 4C13 3.44772 12.5523 3 12 3Z" fill="black"/>
</g>
<defs>
<clipPath id="clip0_2:402">
<rect width="16" height="16" fill="white"/>
</clipPath>
</defs>
</svg>
