<svg width="16" height="16" viewBox="0 0 16 16" fill="none" xmlns="http://www.w3.org/2000/svg">
<g clip-path="url(#clip0_2:395)">
<path d="M12 10C14.1614 10 15.8922 11.6993 15.9952 13.8494L16 14.0523V14.74C16 15.3912 15.5054 15.9288 14.8713 15.9935L14.7428 16H6.25723C5.60616 16 5.07086 15.5031 5.00649 14.8686L5 14.74V14.0523C5 11.8071 6.77109 10 9 10C9.27614 10 9.5 10.2239 9.5 10.5C9.5 10.7761 9.27614 11 9 11C7.38766 11 6.09529 12.2599 6.00504 13.8718L6 14.0523V14.74C6 14.8629 6.08528 14.9661 6.19853 14.9931L6.25723 15H14.7428C14.8638 15 14.9663 14.9143 14.9932 14.7995L15 14.74V14.0523C15 12.355 13.6721 11 12 11C11.7239 11 11.5 10.7761 11.5 10.5C11.5 10.2239 11.7239 10 12 10ZM4 6C4.27614 6 4.5 6.22386 4.5 6.5C4.5 6.77614 4.27614 7 4 7C2.32794 7 1 8.35497 1 10.0523C1 10.1752 1.08528 10.2784 1.19853 10.3054L1.25723 10.3123H5.06104C5.33718 10.3123 5.56104 10.5362 5.56104 10.8123C5.56104 11.0578 5.38416 11.2619 5.15091 11.3042L5.06104 11.3123H1.25723C0.562755 11.3123 0 10.7469 0 10.0523C0 7.80715 1.77109 6 4 6ZM10.5 4C12.1569 4 13.5 5.34315 13.5 7C13.5 8.65685 12.1569 10 10.5 10C8.84313 10 7.5 8.65685 7.5 7C7.5 5.34315 8.84313 4 10.5 4ZM10.5 5C9.39542 5 8.5 5.89543 8.5 7C8.5 8.10457 9.39542 9 10.5 9C11.6046 9 12.5 8.10457 12.5 7C12.5 5.89543 11.6046 5 10.5 5ZM6 6C6.29398 6 6.58346 6.03145 6.86497 6.09332C7.13468 6.1526 7.30526 6.41929 7.24598 6.689C7.1867 6.9587 6.92001 7.12929 6.65031 7.07001C6.43929 7.02363 6.22178 7 6 7C5.72386 7 5.5 6.77614 5.5 6.5C5.5 6.22386 5.72386 6 6 6ZM5 1C6.38072 1 7.5 2.11929 7.5 3.5C7.5 4.88071 6.38072 6 5 6C3.61928 6 2.5 4.88071 2.5 3.5C2.5 2.11929 3.61928 1 5 1ZM5 2C4.17157 2 3.5 2.67157 3.5 3.5C3.5 4.32843 4.17157 5 5 5C5.82843 5 6.5 4.32843 6.5 3.5C6.5 2.67157 5.82843 2 5 2Z" fill="black"/>
</g>
<defs>
<clipPath id="clip0_2:395">
<rect width="16" height="16" fill="white"/>
</clipPath>
</defs>
</svg>
