<svg width="16" height="16" viewBox="0 0 16 16" fill="none" xmlns="http://www.w3.org/2000/svg">
<path d="M13.8545 0.115768L15.9067 5.75392L9.41798 8.1153C9.47135 8.29557 9.5 8.48646 9.5 8.68404C9.5 9.42167 9.10068 10.066 8.50641 10.4128L10.6548 15.5168L9.73321 15.9048L7.53409 10.6828L7.4657 10.6837L5.26679 15.9048L4.34516 15.5168L6.49391 10.4129C5.89947 10.0663 5.5 9.4218 5.5 8.68404C5.5 8.58011 5.50793 8.47804 5.52321 8.37838L1.45417 9.85903L0.0860901 6.10026L4.77009 4.39477L4.45761 3.53597L13.8545 0.115768ZM7.5 7.68404C6.94772 7.68404 6.5 8.13175 6.5 8.68404C6.5 9.23632 6.94772 9.68404 7.5 9.68404C8.05229 9.68404 8.5 9.23632 8.5 8.68404C8.5 8.13175 8.05229 7.68404 7.5 7.68404ZM5.11209 5.33477L1.36726 6.69749L2.0513 8.57688L5.79609 7.21377L5.11209 5.33477ZM13.2564 1.39663L5.73888 4.13279L6.724 6.84016C6.96262 6.73961 7.22482 6.68404 7.5 6.68404C8.03851 6.68404 8.5273 6.89686 8.88686 7.24299L14.6245 5.1554L13.2564 1.39663Z" fill="black"/>
</svg>
