<svg width="16" height="16" viewBox="0 0 16 16" fill="none" xmlns="http://www.w3.org/2000/svg">
<path fill-rule="evenodd" clip-rule="evenodd" d="M8 1C4.13401 1 1 4.13401 1 8H0C0 3.58172 3.58172 0 8 0C12.4183 0 16 3.58172 16 8C16 12.4183 12.4183 16 8 16C4.96894 16 2.33236 14.3141 0.975485 11.8313L0.801925 11.5137L1.14071 11.1522L5 7.29289L7 9.29289L10.2929 6H8V5H12V9H11V6.70711L7 10.7071L5 8.70711L2.03764 11.6695C3.27087 13.6689 5.48031 15 8 15C11.866 15 15 11.866 15 8C15 4.13401 11.866 1 8 1Z" fill="black"/>
</svg>
