<svg width="16" height="16" viewBox="0 0 16 16" fill="none" xmlns="http://www.w3.org/2000/svg">
<path fill-rule="evenodd" clip-rule="evenodd" d="M4 4.5C4 2.02847 5.77489 0 8 0C10.2251 0 12 2.02847 12 4.5C12 6.97153 10.2251 9 8 9C5.77489 9 4 6.97153 4 4.5ZM11 4.5C11 2.55326 9.64091 1 8 1C6.35909 1 5 2.55326 5 4.5C5 6.44674 6.35909 8 8 8C9.64091 8 11 6.44674 11 4.5Z" fill="black"/>
<path d="M15.4952 12.8494C15.3922 10.6993 13.6614 9 11.5 9C11.2239 9 11 9.22386 11 9.5C11 9.77614 11.2239 10 11.5 10C13.1721 10 14.5 11.355 14.5 13.0523V14.74L14.4932 14.7995C14.4663 14.9143 14.3638 15 14.2428 15H1.75723L1.69853 14.9931C1.58528 14.9661 1.5 14.8629 1.5 14.74V13.0523L1.50504 12.8718C1.59529 11.2599 2.88766 10 4.5 10C4.77614 10 5 9.77614 5 9.5C5 9.22386 4.77614 9 4.5 9C2.27109 9 0.5 10.8071 0.5 13.0523V14.74L0.50649 14.8686C0.570859 15.5031 1.10616 16 1.75723 16H14.2428L14.3713 15.9935C15.0054 15.9288 15.5 15.3912 15.5 14.74V13.0523L15.4952 12.8494Z" fill="black"/>
</svg>
