<svg width="16" height="16" viewBox="0 0 16 16" fill="none" xmlns="http://www.w3.org/2000/svg">
<path fill-rule="evenodd" clip-rule="evenodd" d="M8 12.8311C7.26457 13.2565 6.41072 13.5 5.5 13.5C2.73858 13.5 0.5 11.2614 0.5 8.5C0.5 5.73858 2.73858 3.5 5.5 3.5C6.41072 3.5 7.26457 3.74349 8 4.16891C8.73543 3.74349 9.58928 3.5 10.5 3.5C13.2614 3.5 15.5 5.73858 15.5 8.5C15.5 11.2614 13.2614 13.5 10.5 13.5C9.58928 13.5 8.73544 13.2565 8 12.8311ZM1.5 8.5C1.5 6.29086 3.29086 4.5 5.5 4.5C6.06919 4.5 6.61061 4.61889 7.10079 4.83318C6.11619 5.74635 5.5 7.05122 5.5 8.5C5.5 9.94878 6.11619 11.2536 7.10079 12.1668C6.61061 12.3811 6.06919 12.5 5.5 12.5C3.29086 12.5 1.5 10.7091 1.5 8.5ZM8.89921 4.83318C9.38939 4.61888 9.93081 4.5 10.5 4.5C12.7091 4.5 14.5 6.29086 14.5 8.5C14.5 10.7091 12.7091 12.5 10.5 12.5C9.93081 12.5 9.38939 12.3811 8.89921 12.1668C9.88381 11.2536 10.5 9.94878 10.5 8.5C10.5 7.05122 9.88381 5.74635 8.89921 4.83318ZM8 5.37731C8.91446 6.11038 9.5 7.23681 9.5 8.5C9.5 9.76319 8.91446 10.8896 8 11.6227C7.08554 10.8896 6.5 9.76319 6.5 8.5C6.5 7.23681 7.08554 6.11038 8 5.37731Z" fill="black"/>
</svg>
