<?xml version="1.0" encoding="UTF-8"?>
<svg width="16px" height="16px" viewBox="0 0 16 16" version="1.1" xmlns="http://www.w3.org/2000/svg" xmlns:xlink="http://www.w3.org/1999/xlink">
    <!-- Generator: Sketch 62 (91390) - https://sketch.com -->
    <title>vessel</title>
    <desc>Created with Sketch.</desc>
    <g id="vessel" stroke="none" stroke-width="1" fill="none" fill-rule="evenodd">
        <path d="M12,4 L4,4 L4,6 L12,6 L12,4 Z M8,9.004 L1.513,9.931 L1.52070518,10.0838266 C1.52926459,10.2384413 1.54036906,10.4010568 1.55431529,10.5705796 L1.57740303,10.8299075 C1.67360969,11.8349655 1.84581148,12.8391354 2.11153425,13.7710611 L2.18429018,14.0095047 C2.50987802,14.0452383 2.76421871,14.1850031 3.1522976,14.4837145 L3.31234752,14.6095656 C3.69026268,14.9118977 3.84444167,15 4,15 C4.12098981,15 4.24114521,14.9467036 4.46638473,14.7807667 L4.68765248,14.6095656 C5.24723732,14.1618977 5.53055833,14 6,14 C6.4224975,14 6.69423727,14.1311372 7.1522976,14.4837145 L7.50201722,14.7572684 L7.50201722,14.7572684 L7.5,10 L8.5,10 L8.5,14.754 L8.68765248,14.6095656 C9.24723732,14.1618977 9.53055833,14 10,14 C10.4224975,14 10.6942373,14.1311372 11.1522976,14.4837145 L11.3123475,14.6095656 C11.6902627,14.9118977 11.8444417,15 12,15 C12.1209898,15 12.2411452,14.9467036 12.4663847,14.7807667 L12.6876525,14.6095656 C13.1711688,14.2227526 13.4484254,14.0492967 13.8177123,14.0092863 C14.0716545,13.1390462 14.2780073,11.8823184 14.4330317,10.2490754 L14.462,9.927 L8,9.004 Z M13.499,7 L2.5,7 L2.5,8.78 L7.92928932,8.00502525 L8.07071068,8.00502525 L13.5,8.78 L13.499,7 Z M12.999,2 L3,2 L3,3 L12.999,3 L12.999,2 Z M14.5,6 L14.5,8.923 L15.5356056,9.07143882 L15.498431,9.53957995 C15.3361151,11.5836261 15.103356,13.14511 14.7942291,14.2350217 L14.8821533,14.2856685 L14.8821533,14.2856685 L15.0584577,14.4025053 L15.3253359,14.595632 C15.6824444,14.8553472 15.9020627,14.9701551 16.1443217,14.994799 L16.25,15 L16.25,16 C15.7559957,16 15.3919733,15.8545256 14.9197746,15.5331772 L14.4170944,15.1752844 C14.228879,15.0498075 14.1056054,15 14,15 C13.8790102,15 13.7588548,15.0532964 13.5336153,15.2192333 L13.3123475,15.3904344 C12.7527627,15.8381023 12.4694417,16 12,16 C11.5775025,16 11.3057627,15.8688628 10.8477024,15.5162855 L10.6876525,15.3904344 C10.3097373,15.0881023 10.1555583,15 10,15 C9.87901019,15 9.75885479,15.0532964 9.53361527,15.2192333 L9.31234752,15.3904344 C8.75276268,15.8381023 8.46944167,16 8,16 C7.5775025,16 7.30576273,15.8688628 6.8477024,15.5162855 L6.68765248,15.3904344 C6.30973732,15.0881023 6.15555833,15 6,15 C5.87901019,15 5.75885479,15.0532964 5.53361527,15.2192333 L5.31234752,15.3904344 C4.75276268,15.8381023 4.46944167,16 4,16 C3.5775025,16 3.30576273,15.8688628 2.8477024,15.5162855 L2.68765248,15.3904344 C2.30973732,15.0881023 2.15555833,15 2,15 C1.87901019,15 1.75885479,15.0532964 1.53361527,15.2192333 L1.31234752,15.3904344 C0.808721165,15.7933355 0.52886851,15.9647628 0.135711266,15.9950192 L2.30926389e-14,16 L2.30926389e-14,15 C0.120989813,15 0.241145209,14.9467036 0.466384734,14.7807667 L0.687652476,14.6095656 C0.889455514,14.4481232 1.05532935,14.3238463 1.20696044,14.2309251 L1.14986278,14.0452654 L1.14986278,14.0452654 C0.865686194,13.0486197 0.683540466,11.9864631 0.581953181,10.9251945 C0.546449611,10.5542935 0.523499667,10.2096088 0.510602148,9.89961116 L0.5,9.50050863 L0.499558676,9.06641535 L1.5,8.923 L1.5,6 L3,6 L3,4 L2,4 L2,1 L7.5,1 L7.5,0 L8.5,0 L8.5,1 L14,1 L14,4 L13,4 L13,6 L14.5,6 Z" id="Shape" fill="#000000" fill-rule="nonzero"></path>
    </g>
</svg>