<svg width="16" height="16" viewBox="0 0 16 16" fill="none" xmlns="http://www.w3.org/2000/svg">
<path fill-rule="evenodd" clip-rule="evenodd" d="M11 10.5V11C11 12.1046 10.1046 13 9 13H2C0.895431 13 0 12.1046 0 11V5C0 3.89543 0.895431 3 2 3H9C10.1046 3 11 3.89543 11 5V5.5L14.5528 3.72361C15.2177 3.39116 16 3.87465 16 4.61804V11.382C16 12.1253 15.2177 12.6088 14.5528 12.2764L11 10.5ZM2 4H9C9.55228 4 10 4.44772 10 5V11C10 11.5523 9.55229 12 9 12H2C1.44772 12 1 11.5523 1 11V5C1 4.44772 1.44772 4 2 4ZM11 9.38197L15 11.382V4.61804L11 6.61804V9.38197Z" fill="black"/>
</svg>
