<?xml version="1.0" encoding="UTF-8"?>
<svg width="16px" height="16px" viewBox="0 0 16 16" version="1.1" xmlns="http://www.w3.org/2000/svg" xmlns:xlink="http://www.w3.org/1999/xlink">
    <!-- Generator: Sketch 62 (91390) - https://sketch.com -->
    <title>wave-big</title>
    <desc>Created with Sketch.</desc>
    <g id="wave-big" stroke="none" stroke-width="1" fill="none" fill-rule="evenodd">
        <path d="M8,6.5 C9.10074179,6.5 9.70991089,6.75717743 10.6138483,7.45355341 L10.8123475,7.6095656 C11.6034978,8.24248584 12.027854,8.46565128 12.7994529,8.49623933 L13,8.5 L13,9.5 C11.8992582,9.5 11.2900891,9.24282257 10.3861517,8.54644659 L10.1876525,8.3904344 C9.33057298,7.70477081 8.90396713,7.5 8,7.5 C7.1655688,7.5 6.73788331,7.67447927 6.00290677,8.24061522 L5.81234752,8.3904344 C4.86228839,9.15048171 4.2631648,9.45832896 3.22863574,9.49599728 L3,9.5 L3,8.5 C3.8344312,8.5 4.26211669,8.32552073 4.99709323,7.75938478 L5.18765248,7.6095656 C6.20557298,6.79522919 6.8206338,6.5 8,6.5 Z" id="waves" fill="#000000" fill-rule="nonzero"></path>
    </g>
</svg>