<?xml version="1.0" encoding="UTF-8"?>
<svg width="16px" height="16px" viewBox="0 0 16 16" version="1.1" xmlns="http://www.w3.org/2000/svg" xmlns:xlink="http://www.w3.org/1999/xlink">
    <!-- Generator: Sketch 62 (91390) - https://sketch.com -->
    <title>waves-1</title>
    <desc>Created with Sketch.</desc>
    <g id="waves-1" stroke="none" stroke-width="1" fill="none" fill-rule="evenodd">
        <path d="M13,6.5 C13.5549979,6.5 13.8908382,6.70294867 14.4569642,7.25191384 L14.6035534,7.39644661 C15.027859,7.82075225 15.2297586,7.97239754 15.4373303,7.99646276 L15.5,8 L15.5,9 C14.9450021,9 14.6091618,8.79705133 14.0430358,8.24808616 L13.8964466,8.10355339 C13.4297104,7.63681718 13.2320856,7.5 13,7.5 C12.8101118,7.5 12.6432924,7.59158836 12.3332727,7.88052861 L12.1035534,8.10355339 C11.4452896,8.76181718 11.1012478,9 10.5,9 C9.94500208,9 9.60916185,8.79705133 9.04303583,8.24808616 L8.89644661,8.10355339 C8.4297104,7.63681718 8.23208558,7.5 8,7.5 C7.8101118,7.5 7.64329237,7.59158836 7.33327267,7.88052861 L7.10355339,8.10355339 C6.4452896,8.76181718 6.10124775,9 5.5,9 C4.94500208,9 4.60916185,8.79705133 4.04303583,8.24808616 L3.89644661,8.10355339 C3.4297104,7.63681718 3.23208558,7.5 3,7.5 C2.79870579,7.5 2.62061886,7.60797071 2.27369232,7.94621758 L1.96228889,8.25638649 C1.4611736,8.74476621 1.12851964,8.95973942 0.648682337,8.99478927 L0.5,9 L0.5,8 C0.72502088,8 0.911820439,7.88571666 1.28814447,7.51685819 L1.44069811,7.36430453 C2.05680132,6.74165212 2.41033021,6.5 3,6.5 C3.55499792,6.5 3.89083815,6.70294867 4.45696417,7.25191384 L4.60355339,7.39644661 C5.0702896,7.86318282 5.26791442,8 5.5,8 C5.6898882,8 5.85670763,7.90841164 6.16672733,7.61947139 L6.39644661,7.39644661 C7.0547104,6.73818282 7.39875225,6.5 8,6.5 C8.55499792,6.5 8.89083815,6.70294867 9.45696417,7.25191384 L9.60355339,7.39644661 C10.0702896,7.86318282 10.2679144,8 10.5,8 C10.6898882,8 10.8567076,7.90841164 11.1667273,7.61947139 L11.3964466,7.39644661 C12.0547104,6.73818282 12.3987522,6.5 13,6.5 Z" id="waves-copy-5" fill="#000000" fill-rule="nonzero"></path>
    </g>
</svg>