<?xml version="1.0" encoding="UTF-8"?>
<svg width="16px" height="16px" viewBox="0 0 16 16" version="1.1" xmlns="http://www.w3.org/2000/svg" xmlns:xlink="http://www.w3.org/1999/xlink">
    <!-- Generator: Sketch 62 (91390) - https://sketch.com -->
    <title>waves-3</title>
    <desc>Created with Sketch.</desc>
    <g id="waves-3" stroke="none" stroke-width="1" fill="none" fill-rule="evenodd">
        <path d="M13,3 C13.5549979,3 13.8908382,3.20294867 14.4569642,3.75191384 L14.6035534,3.89644661 C15.027859,4.32075225 15.2297586,4.47239754 15.4373303,4.49646276 L15.5,4.5 L15.5,5.5 C14.9450021,5.5 14.6091618,5.29705133 14.0430358,4.74808616 L13.8964466,4.60355339 C13.4297104,4.13681718 13.2320856,4 13,4 C12.8101118,4 12.6432924,4.09158836 12.3332727,4.38052861 L12.1035534,4.60355339 C11.4452896,5.26181718 11.1012478,5.5 10.5,5.5 C9.94500208,5.5 9.60916185,5.29705133 9.04303583,4.74808616 L8.89644661,4.60355339 C8.4297104,4.13681718 8.23208558,4 8,4 C7.8101118,4 7.64329237,4.09158836 7.33327267,4.38052861 L7.10355339,4.60355339 C6.4452896,5.26181718 6.10124775,5.5 5.5,5.5 C4.94500208,5.5 4.60916185,5.29705133 4.04303583,4.74808616 L3.89644661,4.60355339 C3.4297104,4.13681718 3.23208558,4 3,4 C2.79870579,4 2.62061886,4.10797071 2.27369232,4.44621758 L1.96228889,4.75638649 C1.4611736,5.24476621 1.12851964,5.45973942 0.648682337,5.49478927 L0.5,5.5 L0.5,4.5 C0.72502088,4.5 0.911820439,4.38571666 1.28814447,4.01685819 L1.44069811,3.86430453 C2.05680132,3.24165212 2.41033021,3 3,3 C3.55499792,3 3.89083815,3.20294867 4.45696417,3.75191384 L4.60355339,3.89644661 C5.0702896,4.36318282 5.26791442,4.5 5.5,4.5 C5.6898882,4.5 5.85670763,4.40841164 6.16672733,4.11947139 L6.39644661,3.89644661 C7.0547104,3.23818282 7.39875225,3 8,3 C8.55499792,3 8.89083815,3.20294867 9.45696417,3.75191384 L9.60355339,3.89644661 C10.0702896,4.36318282 10.2679144,4.5 10.5,4.5 C10.6898882,4.5 10.8567076,4.40841164 11.1667273,4.11947139 L11.3964466,3.89644661 C12.0547104,3.23818282 12.3987522,3 13,3 Z" id="waves-copy-5" fill="#000000" fill-rule="nonzero"></path>
        <path d="M13,7 C13.5549979,7 13.8908382,7.20294867 14.4569642,7.75191384 L14.6035534,7.89644661 C15.027859,8.32075225 15.2297586,8.47239754 15.4373303,8.49646276 L15.5,8.5 L15.5,9.5 C14.9450021,9.5 14.6091618,9.29705133 14.0430358,8.74808616 L13.8964466,8.60355339 C13.4297104,8.13681718 13.2320856,8 13,8 C12.8101118,8 12.6432924,8.09158836 12.3332727,8.38052861 L12.1035534,8.60355339 C11.4452896,9.26181718 11.1012478,9.5 10.5,9.5 C9.94500208,9.5 9.60916185,9.29705133 9.04303583,8.74808616 L8.89644661,8.60355339 C8.4297104,8.13681718 8.23208558,8 8,8 C7.8101118,8 7.64329237,8.09158836 7.33327267,8.38052861 L7.10355339,8.60355339 C6.4452896,9.26181718 6.10124775,9.5 5.5,9.5 C4.94500208,9.5 4.60916185,9.29705133 4.04303583,8.74808616 L3.89644661,8.60355339 C3.4297104,8.13681718 3.23208558,8 3,8 C2.79870579,8 2.62061886,8.10797071 2.27369232,8.44621758 L1.96228889,8.75638649 C1.4611736,9.24476621 1.12851964,9.45973942 0.648682337,9.49478927 L0.5,9.5 L0.5,8.5 C0.72502088,8.5 0.911820439,8.38571666 1.28814447,8.01685819 L1.44069811,7.86430453 C2.05680132,7.24165212 2.41033021,7 3,7 C3.55499792,7 3.89083815,7.20294867 4.45696417,7.75191384 L4.60355339,7.89644661 C5.0702896,8.36318282 5.26791442,8.5 5.5,8.5 C5.6898882,8.5 5.85670763,8.40841164 6.16672733,8.11947139 L6.39644661,7.89644661 C7.0547104,7.23818282 7.39875225,7 8,7 C8.55499792,7 8.89083815,7.20294867 9.45696417,7.75191384 L9.60355339,7.89644661 C10.0702896,8.36318282 10.2679144,8.5 10.5,8.5 C10.6898882,8.5 10.8567076,8.40841164 11.1667273,8.11947139 L11.3964466,7.89644661 C12.0547104,7.23818282 12.3987522,7 13,7 Z" id="waves-copy-6" fill="#000000" fill-rule="nonzero"></path>
        <path d="M13,11 C13.5549979,11 13.8908382,11.2029487 14.4569642,11.7519138 L14.6035534,11.8964466 C15.027859,12.3207523 15.2297586,12.4723975 15.4373303,12.4964628 L15.5,12.5 L15.5,13.5 C14.9450021,13.5 14.6091618,13.2970513 14.0430358,12.7480862 L13.8964466,12.6035534 C13.4297104,12.1368172 13.2320856,12 13,12 C12.8101118,12 12.6432924,12.0915884 12.3332727,12.3805286 L12.1035534,12.6035534 C11.4452896,13.2618172 11.1012478,13.5 10.5,13.5 C9.94500208,13.5 9.60916185,13.2970513 9.04303583,12.7480862 L8.89644661,12.6035534 C8.4297104,12.1368172 8.23208558,12 8,12 C7.8101118,12 7.64329237,12.0915884 7.33327267,12.3805286 L7.10355339,12.6035534 C6.4452896,13.2618172 6.10124775,13.5 5.5,13.5 C4.94500208,13.5 4.60916185,13.2970513 4.04303583,12.7480862 L3.89644661,12.6035534 C3.4297104,12.1368172 3.23208558,12 3,12 C2.79870579,12 2.62061886,12.1079707 2.27369232,12.4462176 L1.96228889,12.7563865 C1.4611736,13.2447662 1.12851964,13.4597394 0.648682337,13.4947893 L0.5,13.5 L0.5,12.5 C0.72502088,12.5 0.911820439,12.3857167 1.28814447,12.0168582 L1.44069811,11.8643045 C2.05680132,11.2416521 2.41033021,11 3,11 C3.55499792,11 3.89083815,11.2029487 4.45696417,11.7519138 L4.60355339,11.8964466 C5.0702896,12.3631828 5.26791442,12.5 5.5,12.5 C5.6898882,12.5 5.85670763,12.4084116 6.16672733,12.1194714 L6.39644661,11.8964466 C7.0547104,11.2381828 7.39875225,11 8,11 C8.55499792,11 8.89083815,11.2029487 9.45696417,11.7519138 L9.60355339,11.8964466 C10.0702896,12.3631828 10.2679144,12.5 10.5,12.5 C10.6898882,12.5 10.8567076,12.4084116 11.1667273,12.1194714 L11.3964466,11.8964466 C12.0547104,11.2381828 12.3987522,11 13,11 Z" id="waves-copy-7" fill="#000000" fill-rule="nonzero"></path>
    </g>
</svg>